<svg xmlns="http://www.w3.org/2000/svg" width="512" height="512" viewBox="0 0 512 512" data-svgdocument="" id="_kVjCoV9UilMG93xodfWy-" class="fl-svgdocument" x="0" y="0" style="overflow: visible;" xmlns:xlink="http://www.w3.org/1999/xlink"><defs id="_FfKPMea6KBoqwhy4hd8VQ" transform="matrix(1.7092652320861816, 0, 0, 1.7092652320861816, -181.57188415527344, -245.14547729492188)"><linearGradient id="g__ehd83nakc_15" x1="0%" y1="50%" x2="100%" y2="50%"><stop id="_ehd851n9n_2" offset="25%" style="stop-color: rgb(0, 158, 247); stop-opacity: 1;"></stop><stop id="_ehd851n9n_3" offset="100%" style="stop-color: rgb(0, 0, 0); stop-opacity: 1;"></stop></linearGradient><linearGradient id="g__ehd83nakc_33" x1="0%" y1="50%" x2="100%" y2="50%"><stop id="_ehd851n9n_4" offset="0%" style="stop-color: rgb(0, 158, 247); stop-opacity: 1;"></stop><stop id="_ehd851n9n_5" offset="100%" style="stop-color: rgb(0, 0, 0); stop-opacity: 1;"></stop></linearGradient><linearGradient id="g__ehd851n9n_702" x1="0%" y1="50%" x2="100%" y2="50%"><stop id="_ehd851n9n_1034" offset="30%" style="stop-color: rgb(252, 0, 0); stop-opacity: 1;"></stop><stop id="_ehd851n9n_1035" offset="100%" style="stop-color: rgb(0, 0, 0); stop-opacity: 1;"></stop></linearGradient><radialGradient id="g__ehd851n9n_1254" x1="49%" y1="0%" x2="51%" y2="100%"><stop id="_ehd851n9n_1662" offset="32%" style="stop-color: rgb(247, 0, 0); stop-opacity: 1;"></stop><stop id="_ehd851n9n_1663" offset="100%" style="stop-color: rgb(26, 58, 73); stop-opacity: 1;"></stop></radialGradient></defs><g id="_lgZ5IXKJzX3E4FVwKBveO" transform="matrix(1.3131961822509766, 0, 0, 1.3131961822509766, -81.19679260253906, -121.98023986816406)" stroke="rgba(255,0,0,0.78)"><path id="_DTD78MfXGarlButgmIJJc" d="M81.738,51.121l15.254-16.202c-2.863-0.116-5.588-0.175-8.189-0.175c-7.134,0-13.375,0.437-19.219,1.328   c-4.964,0.758-9.919,1.834-14.718,2.866c-3.646,0.79-7.413,1.604-11.165,2.275c-1.024,0.187-2.072,0.386-3.121,0.584   c-3.744,0.711-7.601,1.438-11.347,1.7c-0.253,0.018-0.507,0.04-0.759,0.053c-0.745,0.038-1.477,0.066-2.198,0.086   c-0.051,0.001-0.104,0.004-0.156,0.006c-0.764,0.021-1.515,0.031-2.25,0.031c-1.122,0-2.203-0.024-3.243-0.074   c-0.828-0.037-1.589-0.082-2.334-0.149c-0.713-0.069-1.179-0.125-1.646-0.187c-0.287-0.031-0.417-0.043-0.549-0.062   c-0.196-0.019-0.393-0.038-0.582-0.061c-0.917-0.132-1.81-0.293-2.662-0.468c-0.885-0.191-1.737-0.403-2.531-0.633   c-0.827-0.243-1.63-0.517-2.375-0.814c-0.843-0.336-1.589-0.671-2.211-1.007c-0.639-0.343-1.18-0.697-1.605-1.039   c-0.377-0.308-0.664-0.63-0.882-0.954c-0.033-0.048-0.08-0.097-0.109-0.147c-0.053-0.086-0.124-0.177-0.165-0.266   c-0.081-0.11-0.109-0.222-0.18-0.335v29.061c0,0.392,0.114,0.789,0.345,1.169c0.221,0.373,0.557,0.745,0.991,1.101   c0.425,0.342,0.966,0.695,1.605,1.037c0.623,0.336,1.368,0.672,2.211,1.007c0.745,0.299,1.548,0.573,2.375,0.814   c0.794,0.23,1.646,0.441,2.531,0.635c0.852,0.173,1.745,0.336,2.662,0.466c0.188,0.025,0.385,0.044,0.582,0.062   c0.131,0.019,0.262,0.031,0.549,0.062c0.467,0.062,0.934,0.118,1.646,0.188c0.745,0.067,1.507,0.111,2.334,0.148   c1.041,0.051,2.122,0.075,3.243,0.075c1.475,0,3.015-0.044,4.604-0.125c3.981-0.211,8.109-0.994,12.105-1.752   c1.049-0.199,2.097-0.398,3.121-0.586c3.751-0.671,7.519-1.485,11.165-2.274c4.799-1.031,9.754-2.108,14.718-2.866   c5.844-0.889,12.085-1.327,19.219-1.327c2.674,0,5.473,0.062,8.422,0.183L81.738,51.121z" fill="#826a1d" transform="matrix(-1.439009428024292, 0, 0, 1.8441894054412842, 286.22576904296875, 172.61160278320312)" stroke="rgba(255,0,0,0.78)"></path><path id="_IhPKF3li0IqAaJMv2FY3X" d="M81.738,51.121l15.254-16.202c-2.863-0.116-5.588-0.175-8.189-0.175c-7.134,0-13.375,0.437-19.219,1.328   c-4.964,0.758-9.919,1.834-14.718,2.866c-3.646,0.79-7.413,1.604-11.165,2.275c-1.024,0.187-2.072,0.386-3.121,0.584   c-3.744,0.711-7.601,1.438-11.347,1.7c-0.253,0.018-0.507,0.04-0.759,0.053c-0.745,0.038-1.477,0.066-2.198,0.086   c-0.051,0.001-0.104,0.004-0.156,0.006c-0.764,0.021-1.515,0.031-2.25,0.031c-1.122,0-2.203-0.024-3.243-0.074   c-0.828-0.037-1.589-0.082-2.334-0.149c-0.713-0.069-1.179-0.125-1.646-0.187c-0.287-0.031-0.417-0.043-0.549-0.062   c-0.196-0.019-0.393-0.038-0.582-0.061c-0.917-0.132-1.81-0.293-2.662-0.468c-0.885-0.191-1.737-0.403-2.531-0.633   c-0.827-0.243-1.63-0.517-2.375-0.814c-0.843-0.336-1.589-0.671-2.211-1.007c-0.639-0.343-1.18-0.697-1.605-1.039   c-0.377-0.308-0.664-0.63-0.882-0.954c-0.033-0.048-0.08-0.097-0.109-0.147c-0.053-0.086-0.124-0.177-0.165-0.266   c-0.081-0.11-0.109-0.222-0.18-0.335v29.061c0,0.392,0.114,0.789,0.345,1.169c0.221,0.373,0.557,0.745,0.991,1.101   c0.425,0.342,0.966,0.695,1.605,1.037c0.623,0.336,1.368,0.672,2.211,1.007c0.745,0.299,1.548,0.573,2.375,0.814   c0.794,0.23,1.646,0.441,2.531,0.635c0.852,0.173,1.745,0.336,2.662,0.466c0.188,0.025,0.385,0.044,0.582,0.062   c0.131,0.019,0.262,0.031,0.549,0.062c0.467,0.062,0.934,0.118,1.646,0.188c0.745,0.067,1.507,0.111,2.334,0.148   c1.041,0.051,2.122,0.075,3.243,0.075c1.475,0,3.015-0.044,4.604-0.125c3.981-0.211,8.109-0.994,12.105-1.752   c1.049-0.199,2.097-0.398,3.121-0.586c3.751-0.671,7.519-1.485,11.165-2.274c4.799-1.031,9.754-2.108,14.718-2.866   c5.844-0.889,12.085-1.327,19.219-1.327c2.674,0,5.473,0.062,8.422,0.183L81.738,51.121z" fill="#826a1d" transform="matrix(1.439009428024292, 0, 0, 1.8441894054412842, 225.99456787109375, 172.61160278320312)" stroke="rgba(255,0,0,0.78)"></path></g><g id="_TDsQ7JWyprUKgCblpImed" transform="matrix(1.3131961822509766, 0, 0, 1.3131961822509766, -81.19679260253906, -121.98023986816406)" fill="url(#g__ehd83nakc_15)" stroke="url(#g__ehd851n9n_1679)"><path id="_iJMWI_fj7RC5VEMIbyHsA" d="M81.738,51.121l15.254-16.202c-2.863-0.116-5.588-0.175-8.189-0.175c-7.134,0-13.375,0.437-19.219,1.328   c-4.964,0.758-9.919,1.834-14.718,2.866c-3.646,0.79-7.413,1.604-11.165,2.275c-1.024,0.187-2.072,0.386-3.121,0.584   c-3.744,0.711-7.601,1.438-11.347,1.7c-0.253,0.018-0.507,0.04-0.759,0.053c-0.745,0.038-1.477,0.066-2.198,0.086   c-0.051,0.001-0.104,0.004-0.156,0.006c-0.764,0.021-1.515,0.031-2.25,0.031c-1.122,0-2.203-0.024-3.243-0.074   c-0.828-0.037-1.589-0.082-2.334-0.149c-0.713-0.069-1.179-0.125-1.646-0.187c-0.287-0.031-0.417-0.043-0.549-0.062   c-0.196-0.019-0.393-0.038-0.582-0.061c-0.917-0.132-1.81-0.293-2.662-0.468c-0.885-0.191-1.737-0.403-2.531-0.633   c-0.827-0.243-1.63-0.517-2.375-0.814c-0.843-0.336-1.589-0.671-2.211-1.007c-0.639-0.343-1.18-0.697-1.605-1.039   c-0.377-0.308-0.664-0.63-0.882-0.954c-0.033-0.048-0.08-0.097-0.109-0.147c-0.053-0.086-0.124-0.177-0.165-0.266   c-0.081-0.11-0.109-0.222-0.18-0.335v29.061c0,0.392,0.114,0.789,0.345,1.169c0.221,0.373,0.557,0.745,0.991,1.101   c0.425,0.342,0.966,0.695,1.605,1.037c0.623,0.336,1.368,0.672,2.211,1.007c0.745,0.299,1.548,0.573,2.375,0.814   c0.794,0.23,1.646,0.441,2.531,0.635c0.852,0.173,1.745,0.336,2.662,0.466c0.188,0.025,0.385,0.044,0.582,0.062   c0.131,0.019,0.262,0.031,0.549,0.062c0.467,0.062,0.934,0.118,1.646,0.188c0.745,0.067,1.507,0.111,2.334,0.148   c1.041,0.051,2.122,0.075,3.243,0.075c1.475,0,3.015-0.044,4.604-0.125c3.981-0.211,8.109-0.994,12.105-1.752   c1.049-0.199,2.097-0.398,3.121-0.586c3.751-0.671,7.519-1.485,11.165-2.274c4.799-1.031,9.754-2.108,14.718-2.866   c5.844-0.889,12.085-1.327,19.219-1.327c2.674,0,5.473,0.062,8.422,0.183L81.738,51.121z" fill="url(#g__ehd83nakc_15)" transform="matrix(-1.3056312799453735, 0, 0, 1.6732561588287354, 279.20550537109375, 181.84593200683594)" stroke="url(#g__ehd851n9n_1679)"></path><path id="_aD05u7upjLyF7Jry2uRFS" d="M81.738,51.121l15.254-16.202c-2.863-0.116-5.588-0.175-8.189-0.175c-7.134,0-13.375,0.437-19.219,1.328   c-4.964,0.758-9.919,1.834-14.718,2.866c-3.646,0.79-7.413,1.604-11.165,2.275c-1.024,0.187-2.072,0.386-3.121,0.584   c-3.744,0.711-7.601,1.438-11.347,1.7c-0.253,0.018-0.507,0.04-0.759,0.053c-0.745,0.038-1.477,0.066-2.198,0.086   c-0.051,0.001-0.104,0.004-0.156,0.006c-0.764,0.021-1.515,0.031-2.25,0.031c-1.122,0-2.203-0.024-3.243-0.074   c-0.828-0.037-1.589-0.082-2.334-0.149c-0.713-0.069-1.179-0.125-1.646-0.187c-0.287-0.031-0.417-0.043-0.549-0.062   c-0.196-0.019-0.393-0.038-0.582-0.061c-0.917-0.132-1.81-0.293-2.662-0.468c-0.885-0.191-1.737-0.403-2.531-0.633   c-0.827-0.243-1.63-0.517-2.375-0.814c-0.843-0.336-1.589-0.671-2.211-1.007c-0.639-0.343-1.18-0.697-1.605-1.039   c-0.377-0.308-0.664-0.63-0.882-0.954c-0.033-0.048-0.08-0.097-0.109-0.147c-0.053-0.086-0.124-0.177-0.165-0.266   c-0.081-0.11-0.109-0.222-0.18-0.335v29.061c0,0.392,0.114,0.789,0.345,1.169c0.221,0.373,0.557,0.745,0.991,1.101   c0.425,0.342,0.966,0.695,1.605,1.037c0.623,0.336,1.368,0.672,2.211,1.007c0.745,0.299,1.548,0.573,2.375,0.814   c0.794,0.23,1.646,0.441,2.531,0.635c0.852,0.173,1.745,0.336,2.662,0.466c0.188,0.025,0.385,0.044,0.582,0.062   c0.131,0.019,0.262,0.031,0.549,0.062c0.467,0.062,0.934,0.118,1.646,0.188c0.745,0.067,1.507,0.111,2.334,0.148   c1.041,0.051,2.122,0.075,3.243,0.075c1.475,0,3.015-0.044,4.604-0.125c3.981-0.211,8.109-0.994,12.105-1.752   c1.049-0.199,2.097-0.398,3.121-0.586c3.751-0.671,7.519-1.485,11.165-2.274c4.799-1.031,9.754-2.108,14.718-2.866   c5.844-0.889,12.085-1.327,19.219-1.327c2.674,0,5.473,0.062,8.422,0.183L81.738,51.121z" fill="url(#g__ehd83nakc_15)" transform="matrix(1.3056312799453735, 0, 0, 1.6732561588287354, 233.01483154296875, 181.84593200683594)" stroke="url(#g__ehd851n9n_1679)"></path></g><g id="_nJFFh3ti5yMUEU84TFkTV" transform="matrix(1.3131961822509766, 0, 0, 1.3131961822509766, -81.19679260253906, -121.98023986816406)"><polygon id="_-Yp_BKUdeO2tZKdscGaX6" points="91.822,10.995 91.822,5.312 52.71,29.765 " fill="#826a1d" transform="matrix(0.9608404636383057, 0, 0, 0.9608404636383057, 208.1095428466797, 231.96710205078125)"></polygon><polygon id="_3np8SCm49D9T_hC4YmWJK" points="8.178,10.995 8.178,5.312 47.29,29.765 " fill="#826a1d" transform="matrix(0.9608404636383057, 0, 0, 0.9608404636383057, 208.10951232910156, 231.96710205078125)"></polygon></g><g id="_lnUTHvmKpQiUoFuSh3BsV" transform="matrix(1.3131961822509766, 0, 0, 1.3131961822509766, -81.19679260253906, -121.98023986816406)" fill="url(#g__ehd83nakc_33)"><path id="_2jKZl8B6dQ4sLEkRrk38c" fill="url(#g__ehd83nakc_33)" d="M85.247,67.629c0,0-1.856-2.534-6.248-4.222c0,0-9.366-2.845-13.81-5.952c0,0.09-0.003,0.181-0.005,0.272  c-0.021,1.221-0.158,2.716-0.347,4.267c-0.563,4.607-1.601,9.725-1.601,9.725c-1.375-2.267-2.611-3.761-3.702-4.721  c-1.502-1.32-2.726-1.629-3.644-1.533c-1.091,0.111-1.75,0.791-1.94,1.013c6-7.322,8.143-13.579,8.329-14.154  c-0.037-0.458-0.051-0.942-0.021-1.464c0,0-0.038-0.644-0.104-0.575c1.72-2.207,3.119-4.047,4.047-6.617  c1.578-1.586,2.391-5.432,2.391-5.432c1.316-3.692,0.5-5.126-0.123-5.659c0.768-2.478,2.241-8.568,0.261-13.746l-0.004-0.031  l2.207-1.278l1.122-0.648l4.687-2.711c0.294-0.294,0.294-0.769,0.002-1.062L51.823,2.733c-0.294-0.292-0.768-0.292-1.061,0  l-24.92,10.368c-0.292,0.293-0.292,0.768,0,1.062l1.857,1.073l-0.117,1.642c-0.637,0.108-1.125,0.662-1.125,1.33  c0,0.603,0.394,1.111,0.938,1.285l-1.087,15.226l1.5,4.5l1.501-4.5l-1.088-15.226c0.544-0.175,0.938-0.682,0.938-1.285  c0-0.668-0.486-1.221-1.125-1.33l-0.108-1.51l2.601,1.506l0.106,0.06l2.063,1.194l-0.062,0.783c-0.043,0.122-0.1,0.235-0.14,0.359  c0,0-1.405,3.333,0.308,13.039c-0.415,0.164-2.246,1.178-0.552,5.925c0,0,0.734,3.483,2.166,5.187  c0.807,2.496,2.04,4.908,3.547,7.038c-0.007-0.008-0.016-0.016-0.022-0.022c0,0,0.19,0.934,0.015,2.239  c0.354,0.958,3.189,8.364,8.181,13.96c-0.263-0.267-0.811-0.711-1.62-0.85c-0.876-0.149-2.058,0.058-3.522,1.239  c-1.167,0.94-2.51,2.499-4.018,4.988c0,0-1.241-6.111-1.745-10.989c-0.121-1.17-0.199-2.27-0.207-3.194  c-0.001-0.184,0-0.36,0.003-0.529c-4.348,3.167-14.024,6.104-14.024,6.104c-4.391,1.688-6.248,4.223-6.248,4.223  c-5.297,7.839-6.783,17.468-7.152,20.77c0,4.483,18.981,8.117,42.397,8.117c23.417,0,42.398-3.634,42.398-8.117  C92.029,85.095,90.544,75.466,85.247,67.629z" transform="matrix(0.8662433624267578, 0, 0, 0.8662433624267578, 213.9935760498047, 185.2116241455078)"></path><polygon id="_3yuFKxP5r_vMvGcn0g8A_" points="52.71,31.876 52.71,98.688 100,76.418 100,9.605 " fill="url(#g__ehd83nakc_33)" transform="matrix(0.9608404636383057, 0, 0, 0.9608404636383057, 208.19493103027344, 229.19557189941406)"></polygon><polygon id="_93A8_RjXAqhiQXmfxYUbb" points="47.29,31.876 47.29,98.688 0,76.418 0,9.605 " fill="url(#g__ehd83nakc_33)" transform="matrix(0.9608404636383057, 0, 0, 0.9608404636383057, 208.1952362060547, 229.19557189941406)"></polygon></g><rect id="_qT-bz2pvAfQJsh-ALA7Cn" x="-0.013" y="0" width="176.769" height="176.769" fill="url(#g__ehd851n9n_702)" transform="matrix(0.03877745196223259, 0, 0, 0.4811130464076996, 251.6992645263672, 219.2513427734375)"></rect><path id="_lnNSV3S-cc4SmJcetwMkb" fill="url(#g__ehd851n9n_1254)" transform="matrix(0.6721118092536926, 0, 0, 0.6721118092536926, 254.73593139648438, 387.37701416015625)" text="Damo Softwares" text-anchor="middle" font-size="100" letter-spacing="4" side="left" offset="0.5" dx="0" dy="0" space="preserve" font-family="Fjalla One" font-scale="contain" x="0" y="0" data-fl-textpath="" d="M-326.5716477878504 0.7799987196922302L-326.5716477878504-81.33000128030777L-313.6416477878504-81.33000128030777Q-310.7116477878504-81.33000128030777 -307.56164778785035-81.17000128030777Q-304.41164778785037-81.00000128030777 -301.4016477878504-80.13000128030777Q-298.4016477878504-79.27000128030777 -295.73164778785036-77.46000128030776Q-293.06164778785035-75.66000128030777 -291.04164778785037-72.42000128030777Q-289.0216477878504-69.17000128030777 -287.85164778785037-64.24000128030777Q-286.67164778785036-59.31000128030777 -286.67164778785036-52.20000128030777L-286.67164778785036-52.20000128030777L-286.67164778785036-28.35000128030777Q-286.67164778785036-21.24000128030777 -287.85164778785037-16.29000128030777Q-289.0216477878504-11.340001280307769 -291.04164778785037-8.11000128030777Q-293.06164778785035-4.89000128030777 -295.73164778785036-3.09000128030777Q-298.4016477878504-1.2900012803077696 -301.4016477878504-0.42000128030776973Q-304.41164778785037 0.4399987196922302 -307.56164778785035 0.6099987196922302Q-310.7116477878504 0.7799987196922302 -313.6416477878504 0.7799987196922302L-313.6416477878504 0.7799987196922302L-326.5716477878504 0.7799987196922302ZM-314.1216477878504-7.920001280307769L-310.9516477878504-7.920001280307769Q-307.5816477878504-7.920001280307769 -305.3916477878504-8.79000128030777Q-303.2116477878504-9.65000128030777 -301.93164778785035-11.840001280307769Q-300.66164778785037-14.03000128030777 -300.18164778785035-17.800001280307768Q-299.7016477878504-21.58000128030777 -299.7016477878504-27.34000128030777L-299.7016477878504-27.34000128030777L-299.7016477878504-52.82000128030777Q-299.7016477878504-58.59000128030777 -300.18164778785035-62.37000128030777Q-300.66164778785037-66.14000128030777 -301.93164778785035-68.33000128030777Q-303.2116477878504-70.52000128030777 -305.3916477878504-71.38000128030777Q-307.5816477878504-72.25000128030777 -310.9516477878504-72.25000128030777L-310.9516477878504-72.25000128030777L-314.1216477878504-72.25000128030777L-314.1216477878504-7.920001280307769ZM-263.26482566823853 1.4999987196922302L-263.26482566823853 1.4999987196922302Q-266.3348256682385 1.4999987196922302 -268.7148256682385 0.2799987196922302Q-271.0948256682385-0.9500012803077698 -272.7348256682385-3.07000128030777Q-274.36482566823855-5.18000128030777 -275.2048256682385-8.090001280307769Q-276.0448256682385-11.00000128030777 -276.0448256682385-14.41000128030777L-276.0448256682385-14.41000128030777Q-276.0448256682385-18.50000128030777 -275.0348256682385-21.67000128030777Q-274.0248256682385-24.84000128030777 -272.0848256682385-27.39000128030777Q-270.13482566823853-29.94000128030777 -267.25482566823854-32.03000128030777Q-264.36482566823855-34.12000128030777 -260.56482566823854-36.00000128030777L-260.56482566823854-36.00000128030777Q-258.74482566823855-36.91000128030777 -256.4548256682385-37.85000128030777Q-254.17482566823853-38.79000128030777 -252.39482566823852-39.46000128030777L-252.39482566823852-39.46000128030777L-252.39482566823852-48.21000128030777Q-252.39482566823852-50.130001280307766 -252.5348256682385-51.79000128030777Q-252.68482566823852-53.45000128030777 -253.23482566823853-54.68000128030777Q-253.7848256682385-55.90000128030777 -254.89482566823852-56.60000128030777Q-256.00482566823854-57.30000128030777 -257.92482566823855-57.30000128030777L-257.92482566823855-57.30000128030777Q-259.2248256682385-57.30000128030777 -260.44482566823854-56.81000128030777Q-261.67482566823855-56.33000128030777 -262.6148256682385-55.18000128030777Q-263.5448256682385-54.03000128030777 -264.1048256682385-52.10000128030777Q-264.6548256682385-50.18000128030777 -264.6548256682385-47.34000128030777L-264.6548256682385-47.34000128030777L-264.6548256682385-44.46000128030777L-273.93482566823855-44.46000128030777Q-274.36482566823855-46.33000128030777 -274.5848256682385-47.90000128030777Q-274.7948256682385-49.46000128030777 -274.7948256682385-51.00000128030777L-274.7948256682385-51.00000128030777Q-274.7948256682385-54.70000128030777 -273.5248256682385-57.54000128030777Q-272.25482566823854-60.37000128030777 -269.9648256682385-62.30000128030777Q-267.68482566823855-64.22000128030777 -264.51482566823853-65.20000128030777Q-261.3348256682385-66.19000128030777 -257.5348256682385-66.19000128030777L-257.5348256682385-66.19000128030777Q-252.58482566823852-66.19000128030777 -249.31482566823854-65.11000128030777Q-246.04482566823853-64.03000128030777 -244.10482566823853-61.86000128030777Q-242.15482566823852-59.70000128030777 -241.36482566823852-56.43000128030777Q-240.56482566823854-53.16000128030777 -240.56482566823854-48.79000128030777L-240.56482566823854-48.79000128030777L-240.56482566823854 0.7799987196922302L-249.60482566823853 0.7799987196922302L-250.4748256682385-4.89000128030777Q-252.44482566823854-2.0600012803077696 -255.73482566823853-0.28000128030776983Q-259.0348256682385 1.4999987196922302 -263.26482566823853 1.4999987196922302ZM-257.87482566823854-7.87000128030777L-257.87482566823854-7.87000128030777Q-256.3348256682385-7.87000128030777 -254.87482566823851-8.670001280307769Q-253.40482566823852-9.46000128030777 -252.39482566823852-10.61000128030777L-252.39482566823852-10.61000128030777L-252.39482566823852-31.33000128030777Q-253.35482566823853-30.95000128030777 -254.55482566823852-30.42000128030777Q-255.76482566823853-29.89000128030777 -257.1548256682385-29.03000128030777L-257.1548256682385-29.03000128030777Q-258.4548256682385-28.210001280307768 -259.7048256682385-27.06000128030777Q-260.9548256682385-25.90000128030777 -261.93482566823855-24.32000128030777Q-262.9248256682385-22.73000128030777 -263.5248256682385-20.73000128030777Q-264.12482566823854-18.74000128030777 -264.12482566823854-16.29000128030777L-264.12482566823854-16.29000128030777Q-264.12482566823854-12.49000128030777 -262.63482566823853-10.18000128030777Q-261.1448256682385-7.87000128030777 -257.87482566823854-7.87000128030777ZM-224.0343601572011 0.7799987196922302L-224.0343601572011-65.42000128030777L-214.6143601572011-65.42000128030777L-213.5543601572011-58.35000128030777L-213.5543601572011-58.31000128030777Q-212.11436015720108-60.56000128030777 -210.4743601572011-62.08000128030777Q-208.8443601572011-63.590001280307774 -207.0843601572011-64.51000128030778Q-205.3343601572011-65.42000128030777 -203.48436015720108-65.81000128030777Q-201.6343601572011-66.19000128030777 -199.8043601572011-66.19000128030777L-199.8043601572011-66.19000128030777Q-195.9143601572011-66.19000128030777 -193.2143601572011-64.31000128030777Q-190.5243601572011-62.44000128030777 -189.1343601572011-58.69000128030777L-189.1343601572011-58.69000128030777Q-187.6843601572011-60.85000128030777 -186.07436015720108-62.30000128030777Q-184.4643601572011-63.740001280307766 -182.73436015720108-64.60000128030777Q-181.0043601572011-65.47000128030777 -179.2243601572011-65.83000128030777Q-177.4443601572011-66.19000128030777 -175.6243601572011-66.19000128030777L-175.6243601572011-66.19000128030777Q-169.85436015720109-66.19000128030777 -166.7043601572011-62.130001280307766Q-163.55436015720107-58.06000128030777 -163.55436015720107-49.94000128030777L-163.55436015720107-49.94000128030777L-163.55436015720107 0.7799987196922302L-175.7143601572011 0.7799987196922302L-175.7143601572011-49.51000128030777Q-175.7143601572011-51.67000128030777 -176.0543601572011-53.16000128030777Q-176.3943601572011-54.65000128030777 -177.0643601572011-55.56000128030777Q-177.73436015720108-56.48000128030777 -178.79436015720108-56.89000128030777Q-179.85436015720109-57.30000128030777 -181.3443601572011-57.30000128030777L-181.3443601572011-57.30000128030777Q-183.0243601572011-57.30000128030777 -184.7043601572011-56.07000128030777Q-186.3943601572011-54.84000128030777 -187.7843601572011-52.68000128030777L-187.7843601572011-52.68000128030777Q-187.73436015720108-52.25000128030777 -187.73436015720108-51.81000128030777Q-187.73436015720108-51.380001280307766 -187.73436015720108-50.95000128030777L-187.73436015720108-50.95000128030777L-187.73436015720108 0.7799987196922302L-199.9043601572011 0.7799987196922302L-199.9043601572011-49.51000128030777Q-199.9043601572011-51.67000128030777 -200.23436015720108-53.16000128030777Q-200.57436015720108-54.65000128030777 -201.2443601572011-55.56000128030777Q-201.92436015720108-56.48000128030777 -202.9743601572011-56.89000128030777Q-204.0343601572011-57.30000128030777 -205.5243601572011-57.30000128030777L-205.5243601572011-57.30000128030777Q-207.1643601572011-57.30000128030777 -208.8443601572011-56.09000128030777Q-210.5243601572011-54.89000128030777 -211.8743601572011-52.78000128030777L-211.8743601572011-52.78000128030777L-211.8743601572011 0.7799987196922302L-224.0343601572011 0.7799987196922302ZM-130.34066638243036 1.4999987196922302L-130.34066638243036 1.4999987196922302Q-132.45066638243037 1.4999987196922302 -134.64066638243037 1.1599987196922301Q-136.83066638243037 0.8299987196922303 -138.87066638243036-0.23000128030776978Q-140.91066638243035-1.2900012803077696 -142.72066638243035-3.26000128030777Q-144.52066638243036-5.23000128030777 -145.87066638243036-8.45000128030777Q-147.21066638243036-11.670001280307769 -147.98066638243037-16.38000128030777Q-148.75066638243035-21.09000128030777 -148.75066638243035-27.63000128030777L-148.75066638243035-27.63000128030777L-148.75066638243035-38.02000128030777Q-148.75066638243035-44.46000128030777 -147.96066638243036-49.05000128030777Q-147.16066638243035-53.64000128030777 -145.79066638243037-56.77000128030777Q-144.42066638243037-59.89000128030777 -142.60066638243038-61.74000128030777Q-140.77066638243036-63.590001280307774 -138.73066638243037-64.58000128030777Q-136.68066638243036-65.56000128030777 -134.52066638243036-65.88000128030777Q-132.36066638243037-66.19000128030777 -130.29066638243037-66.19000128030777L-130.29066638243037-66.19000128030777Q-128.32066638243037-66.19000128030777 -126.20066638243037-65.90000128030778Q-124.09066638243036-65.61000128030777 -122.07066638243036-64.68000128030776Q-120.05066638243036-63.740001280307766 -118.25066638243035-61.89000128030777Q-116.44066638243036-60.04000128030777 -115.07066638243036-56.91000128030777Q-113.70066638243037-53.79000128030777 -112.91066638243036-49.15000128030777Q-112.12066638243036-44.51000128030777 -112.12066638243036-38.02000128030777L-112.12066638243036-38.02000128030777L-112.12066638243036-27.63000128030777Q-112.12066638243036-21.19000128030777 -112.93066638243036-16.53000128030777Q-113.75066638243035-11.86000128030777 -115.15066638243036-8.64000128030777Q-116.54066638243037-5.42000128030777 -118.37066638243036-3.4300012803077697Q-120.19066638243036-1.4300012803077697 -122.21066638243036-0.3300012803077699Q-124.23066638243037 0.7799987196922302 -126.32066638243036 1.13999871969223Q-128.41066638243035 1.4999987196922302 -130.34066638243036 1.4999987196922302ZM-130.24066638243036-7.87000128030777L-130.24066638243036-7.87000128030777Q-128.61066638243037-7.87000128030777 -127.48066638243037-8.71000128030777Q-126.35066638243036-9.56000128030777 -125.65066638243036-11.48000128030777Q-124.95066638243037-13.40000128030777 -124.64066638243037-16.550001280307768Q-124.33066638243037-19.70000128030777 -124.33066638243037-24.36000128030777L-124.33066638243037-24.36000128030777L-124.33066638243037-40.66000128030777Q-124.33066638243037-45.32000128030777 -124.64066638243037-48.50000128030777Q-124.95066638243037-51.67000128030777 -125.65066638243036-53.62000128030777Q-126.35066638243036-55.56000128030777 -127.48066638243037-56.43000128030777Q-128.61066638243037-57.30000128030777 -130.24066638243036-57.30000128030777L-130.24066638243036-57.30000128030777Q-131.97066638243035-57.30000128030777 -133.15066638243036-56.43000128030777Q-134.33066638243037-55.56000128030777 -135.10066638243035-53.62000128030777Q-135.87066638243036-51.67000128030777 -136.20066638243037-48.50000128030777Q-136.54066638243037-45.32000128030777 -136.54066638243037-40.66000128030777L-136.54066638243037-40.66000128030777L-136.54066638243037-24.36000128030777Q-136.54066638243037-19.70000128030777 -136.20066638243037-16.550001280307768Q-135.87066638243036-13.40000128030777 -135.10066638243035-11.48000128030777Q-134.33066638243037-9.56000128030777 -133.15066638243036-8.71000128030777Q-131.97066638243035-7.87000128030777 -130.24066638243036-7.87000128030777ZM-74.81458879634243-15.850001280307769L-74.81458879634243-15.850001280307769Q-74.81458879634243-18.50000128030777 -74.50458879634243-20.73000128030777Q-74.19458879634243-22.97000128030777 -73.56458879634243-25.57000128030777L-73.56458879634243-25.57000128030777L-63.90458879634243-25.57000128030777L-63.90458879634243-21.58000128030777Q-63.90458879634243-18.26000128030777 -63.49458879634243-15.710001280307768Q-63.08458879634243-13.16000128030777 -62.15458879634242-11.41000128030777Q-61.214588796342426-9.65000128030777 -59.65458879634242-8.760001280307769Q-58.08458879634243-7.87000128030777 -55.824588796342425-7.87000128030777L-55.824588796342425-7.87000128030777Q-52.27458879634243-7.87000128030777 -50.39458879634243-9.82000128030777Q-48.52458879634243-11.77000128030777 -48.52458879634243-15.52000128030777L-48.52458879634243-15.52000128030777Q-48.52458879634243-17.44000128030777 -48.78458879634243-19.050001280307768Q-49.05458879634243-20.66000128030777 -49.69458879634243-22.25000128030777Q-50.34458879634243-23.83000128030777 -51.45458879634243-25.59000128030777Q-52.55458879634243-27.34000128030777 -54.294588796342424-29.51000128030777L-54.294588796342424-29.51000128030777L-67.27458879634243-44.94000128030777Q-70.73458879634242-49.36000128030777 -72.60458879634243-53.86000128030777Q-74.48458879634242-58.35000128030777 -74.48458879634242-63.450001280307774L-74.48458879634242-63.450001280307774Q-74.48458879634242-67.54000128030776 -73.20458879634243-70.95000128030777Q-71.93458879634242-74.36000128030777 -69.53458879634243-76.84000128030777Q-67.12458879634244-79.31000128030777 -63.59458879634243-80.68000128030776Q-60.05458879634243-82.05000128030777 -55.58458879634243-82.05000128030777L-55.58458879634243-82.05000128030777Q-50.15458879634242-82.05000128030777 -46.52458879634243-80.52000128030777Q-42.894588796342425-78.98000128030777 -40.73458879634243-76.48000128030777Q-38.56458879634243-73.98000128030777 -37.68458879634243-70.88000128030777Q-36.79458879634243-67.78000128030777 -36.79458879634243-64.65000128030778L-36.79458879634243-64.65000128030778Q-36.79458879634243-62.01000128030777 -37.19458879634243-59.77000128030777Q-37.604588796342426-57.54000128030777 -38.13458879634243-54.84000128030777L-38.13458879634243-54.84000128030777L-47.75458879634243-54.84000128030777L-47.75458879634243-58.74000128030777Q-47.75458879634243-65.28000128030777 -49.62458879634243-68.76000128030778Q-51.50458879634243-72.25000128030777 -55.73458879634243-72.25000128030777L-55.73458879634243-72.25000128030777Q-59.24458879634243-72.25000128030777 -60.97458879634243-70.30000128030777Q-62.70458879634243-68.35000128030777 -62.70458879634243-65.08000128030777L-62.70458879634243-65.08000128030777Q-62.70458879634243-63.350001280307765 -62.434588796342425-61.96000128030777Q-62.174588796342434-60.56000128030777 -61.674588796342434-59.39000128030777Q-61.16458879634243-58.21000128030777 -60.44458879634243-57.10000128030777Q-59.72458879634243-56.00000128030777 -58.80458879634243-54.80000128030777L-58.80458879634243-54.80000128030777L-44.33458879634243-37.30000128030777Q-40.394588796342425-32.15000128030777 -38.284588796342426-27.42000128030777Q-36.16458879634243-22.68000128030777 -36.16458879634243-17.39000128030777L-36.16458879634243-17.39000128030777Q-36.16458879634243-13.02000128030777 -37.534588796342426-9.510001280307769Q-38.90458879634243-6.00000128030777 -41.45458879634243-3.55000128030777Q-44.00458879634243-1.0900012803077699 -47.604588796342426 0.22999871969223018Q-51.214588796342426 1.5499987196922302 -55.73458879634243 1.5499987196922302L-55.73458879634243 1.5499987196922302Q-61.30458879634243 1.5499987196922302 -64.98458879634242 0.05999871969223025Q-68.66458879634243-1.4300012803077697 -70.85458879634243-3.88000128030777Q-73.04458879634242-6.34000128030777 -73.92458879634243-9.46000128030777Q-74.81458879634243-12.590001280307769 -74.81458879634243-15.850001280307769ZM-5.835692017195996 1.4999987196922302L-5.835692017195996 1.4999987196922302Q-7.945692017195995 1.4999987196922302 -10.135692017195996 1.1599987196922301Q-12.325692017195994 0.8299987196922303 -14.365692017195995-0.23000128030776978Q-16.405692017195996-1.2900012803077696 -18.215692017195995-3.26000128030777Q-20.015692017195995-5.23000128030777 -21.365692017195997-8.45000128030777Q-22.705692017195997-11.670001280307769 -23.475692017195996-16.38000128030777Q-24.245692017195996-21.09000128030777 -24.245692017195996-27.63000128030777L-24.245692017195996-27.63000128030777L-24.245692017195996-38.02000128030777Q-24.245692017195996-44.46000128030777 -23.455692017195997-49.05000128030777Q-22.655692017195996-53.64000128030777 -21.285692017195995-56.77000128030777Q-19.915692017195994-59.89000128030777 -18.095692017195994-61.74000128030777Q-16.265692017195995-63.590001280307774 -14.225692017195996-64.58000128030777Q-12.175692017195995-65.56000128030777 -10.015692017195995-65.88000128030777Q-7.855692017195995-66.19000128030777 -5.785692017195995-66.19000128030777L-5.785692017195995-66.19000128030777Q-3.815692017195996-66.19000128030777 -1.695692017195995-65.90000128030778Q 0.4143079828040044-65.61000128030777  2.434307982804004-64.68000128030776Q 4.4543079828040035-63.740001280307766  6.254307982804008-61.89000128030777Q 8.064307982804003-60.04000128030777  9.434307982804008-56.91000128030777Q 10.804307982804005-53.79000128030777  11.594307982804004-49.15000128030777Q 12.384307982804003-44.51000128030777  12.384307982804003-38.02000128030777L 12.384307982804003-38.02000128030777L 12.384307982804003-27.63000128030777Q 12.384307982804003-21.19000128030777  11.574307982804008-16.53000128030777Q 10.754307982804008-11.86000128030777  9.354307982804002-8.64000128030777Q 7.9643079828040015-5.42000128030777  6.134307982804003-3.4300012803077697Q 4.314307982804003-1.4300012803077697  2.2943079828040034-0.3300012803077699Q 0.2743079828040038 0.7799987196922302 -1.815692017195996 1.13999871969223Q-3.905692017195996 1.4999987196922302 -5.835692017195996 1.4999987196922302ZM-5.735692017195994-7.87000128030777L-5.735692017195994-7.87000128030777Q-4.105692017195995-7.87000128030777 -2.975692017195996-8.71000128030777Q-1.8456920171959936-9.56000128030777 -1.1456920171959943-11.48000128030777Q-0.44569201719599505-13.40000128030777 -0.13569201719599633-16.550001280307768Q 0.17430798280400595-19.70000128030777  0.17430798280400595-24.36000128030777L 0.17430798280400595-24.36000128030777L 0.17430798280400595-40.66000128030777Q 0.17430798280400595-45.32000128030777 -0.13569201719599633-48.50000128030777Q-0.44569201719599505-51.67000128030777 -1.1456920171959943-53.62000128030777Q-1.8456920171959936-55.56000128030777 -2.975692017195996-56.43000128030777Q-4.105692017195995-57.30000128030777 -5.735692017195994-57.30000128030777L-5.735692017195994-57.30000128030777Q-7.465692017195995-57.30000128030777 -8.645692017195994-56.43000128030777Q-9.825692017195994-55.56000128030777 -10.595692017195994-53.62000128030777Q-11.365692017195997-51.67000128030777 -11.695692017195995-48.50000128030777Q-12.035692017195995-45.32000128030777 -12.035692017195995-40.66000128030777L-12.035692017195995-40.66000128030777L-12.035692017195995-24.36000128030777Q-12.035692017195995-19.70000128030777 -11.695692017195995-16.550001280307768Q-11.365692017195997-13.40000128030777 -10.595692017195994-11.48000128030777Q-9.825692017195994-9.56000128030777 -8.645692017195994-8.71000128030777Q-7.465692017195995-7.87000128030777 -5.735692017195994-7.87000128030777ZM 28.724733734195148 0.7799987196922302L 28.724733734195148-56.77000128030777L 23.00473373419515-56.77000128030777L 23.00473373419515-65.42000128030777L 28.724733734195148-65.42000128030777L 28.724733734195148-70.18000128030776Q 28.724733734195148-75.56000128030777  29.834733734195147-78.95000128030777Q 30.944733734195147-82.34000128030777  32.88473373419515-84.24000128030777Q 34.83473373419515-86.14000128030777  37.454733734195145-86.81000128030777Q 40.07473373419515-87.49000128030777  43.10473373419515-87.49000128030777L 43.10473373419515-87.49000128030777Q 43.96473373419515-87.49000128030777  45.05473373419515-87.39000128030777Q 46.13473373419515-87.29000128030776  47.21473373419515-87.08000128030777Q 48.29473373419515-86.86000128030777  49.32473373419515-86.57000128030776Q 50.36473373419515-86.29000128030776  51.18473373419515-85.85000128030777L 51.18473373419515-85.85000128030777L 51.18473373419515-77.30000128030777Q 49.16473373419515-77.82000128030776  46.66473373419515-77.82000128030776L 46.66473373419515-77.82000128030776Q 45.454733734195145-77.82000128030776  44.374733734195146-77.44000128030777Q 43.29473373419515-77.05000128030777  42.47473373419515-76.17000128030777Q 41.66473373419515-75.28000128030777  41.18473373419515-73.81000128030777Q 40.704733734195145-72.34000128030777  40.704733734195145-70.18000128030776L 40.704733734195145-70.18000128030776L 40.704733734195145-65.42000128030777L 49.88473373419515-65.42000128030777L 49.88473373419515-56.77000128030777L 40.704733734195145-56.77000128030777L 40.704733734195145 0.7799987196922302L 28.724733734195148 0.7799987196922302ZM 62.037839763018226-15.710001280307768L 62.037839763018226-56.77000128030777L 56.897839763018226-56.77000128030777L 56.897839763018226-65.42000128030777L 63.09783976301823-65.42000128030777L 65.54783976301823-82.58000128030777L 74.20783976301823-82.58000128030777L 74.20783976301823-65.42000128030777L 84.77783976301822-65.42000128030777L 84.77783976301822-56.77000128030777L 74.20783976301823-56.77000128030777L 74.20783976301823-14.65000128030777Q 74.20783976301823-12.49000128030777  74.61783976301822-11.170001280307769Q 75.01783976301823-9.840001280307769  75.74783976301822-9.10000128030777Q 76.46783976301822-8.35000128030777  77.42783976301823-8.11000128030777Q 78.38783976301822-7.87000128030777  79.44783976301822-7.87000128030777L 79.44783976301822-7.87000128030777Q 81.22783976301822-7.87000128030777  82.59783976301823-8.31000128030777Q 83.96783976301822-8.74000128030777  85.21783976301822-9.510001280307769L 85.21783976301822-9.510001280307769L 85.21783976301822-2.78000128030777Q 84.15783976301823-1.4800012803077696  82.92783976301823-0.6600012803077697Q 81.70783976301823 0.15999871969223023  80.40783976301823 0.6599987196922302Q 79.10783976301823 1.1599987196922301  77.75783976301823 1.3599987196922303Q 76.41783976301822 1.5499987196922302  75.11783976301822 1.5499987196922302L 75.11783976301822 1.5499987196922302Q 72.56783976301823 1.5499987196922302  70.21783976301822 0.8799987196922302Q 67.85783976301823 0.19999871969223026  66.02783976301822-1.7000012803077698Q 64.20783976301823-3.59000128030777  63.12783976301823-6.96000128030777Q 62.037839763018226-10.33000128030777  62.037839763018226-15.710001280307768L 62.037839763018226-15.710001280307768ZM 103.38744281089181 0.7799987196922302L 92.46744281089182-65.42000128030777L 104.05744281089181-65.42000128030777L 108.81744281089182-29.56000128030777L 109.96744281089181-16.14000128030777L 110.35744281089183-16.14000128030777L 111.79744281089182-29.56000128030777L 118.14744281089182-65.42000128030777L 128.38744281089183-65.42000128030777L 134.91744281089183-29.56000128030777L 136.6974428108918-16.14000128030777L 137.08744281089182-16.14000128030777L 137.89744281089182-29.56000128030777L 142.08744281089182-65.42000128030777L 153.42744281089182-65.42000128030777L 142.70744281089182 0.7799987196922302L 131.5074428108918 0.7799987196922302L 124.63744281089183-36.05000128030777L 123.09744281089182-46.19000128030777L 122.70744281089182-46.19000128030777L 121.31744281089182-36.05000128030777L 115.06744281089182 0.7799987196922302L 103.38744281089181 0.7799987196922302ZM 174.43134132394897 1.4999987196922302L 174.43134132394897 1.4999987196922302Q 171.36134132394898 1.4999987196922302  168.98134132394898 0.2799987196922302Q 166.601341323949-0.9500012803077698  164.96134132394897-3.07000128030777Q 163.33134132394898-5.18000128030777  162.49134132394897-8.090001280307769Q 161.65134132394897-11.00000128030777  161.65134132394897-14.41000128030777L 161.65134132394897-14.41000128030777Q 161.65134132394897-18.50000128030777  162.661341323949-21.67000128030777Q 163.67134132394898-24.84000128030777  165.61134132394898-27.39000128030777Q 167.56134132394897-29.94000128030777  170.44134132394896-32.03000128030777Q 173.33134132394898-34.12000128030777  177.13134132394896-36.00000128030777L 177.13134132394896-36.00000128030777Q 178.95134132394898-36.91000128030777  181.24134132394897-37.85000128030777Q 183.52134132394897-38.79000128030777  185.30134132394898-39.46000128030777L 185.30134132394898-39.46000128030777L 185.30134132394898-48.21000128030777Q 185.30134132394898-50.130001280307766  185.161341323949-51.79000128030777Q 185.01134132394898-53.45000128030777  184.46134132394897-54.68000128030777Q 183.911341323949-55.90000128030777  182.80134132394898-56.60000128030777Q 181.69134132394896-57.30000128030777  179.77134132394897-57.30000128030777L 179.77134132394897-57.30000128030777Q 178.471341323949-57.30000128030777  177.25134132394896-56.81000128030777Q 176.02134132394897-56.33000128030777  175.08134132394898-55.18000128030777Q 174.15134132394897-54.03000128030777  173.59134132394897-52.10000128030777Q 173.04134132394898-50.18000128030777  173.04134132394898-47.34000128030777L 173.04134132394898-47.34000128030777L 173.04134132394898-44.46000128030777L 163.76134132394898-44.46000128030777Q 163.33134132394898-46.33000128030777  163.11134132394898-47.90000128030777Q 162.90134132394897-49.46000128030777  162.90134132394897-51.00000128030777L 162.90134132394897-51.00000128030777Q 162.90134132394897-54.70000128030777  164.17134132394898-57.54000128030777Q 165.44134132394896-60.37000128030777  167.73134132394898-62.30000128030777Q 170.01134132394898-64.22000128030777  173.18134132394897-65.20000128030777Q 176.36134132394898-66.19000128030777  180.161341323949-66.19000128030777L 180.161341323949-66.19000128030777Q 185.11134132394898-66.19000128030777  188.38134132394896-65.11000128030777Q 191.65134132394897-64.03000128030777  193.59134132394897-61.86000128030777Q 195.54134132394898-59.70000128030777  196.33134132394898-56.43000128030777Q 197.13134132394896-53.16000128030777  197.13134132394896-48.79000128030777L 197.13134132394896-48.79000128030777L 197.13134132394896 0.7799987196922302L 188.09134132394897 0.7799987196922302L 187.221341323949-4.89000128030777Q 185.25134132394896-2.0600012803077696  181.96134132394897-0.28000128030776983Q 178.661341323949 1.4999987196922302  174.43134132394897 1.4999987196922302ZM 179.82134132394899-7.87000128030777L 179.82134132394899-7.87000128030777Q 181.36134132394898-7.87000128030777  182.82134132394899-8.670001280307769Q 184.29134132394898-9.46000128030777  185.30134132394898-10.61000128030777L 185.30134132394898-10.61000128030777L 185.30134132394898-31.33000128030777Q 184.34134132394897-30.95000128030777  183.14134132394898-30.42000128030777Q 181.93134132394897-29.89000128030777  180.54134132394898-29.03000128030777L 180.54134132394898-29.03000128030777Q 179.24134132394897-28.210001280307768  177.99134132394897-27.06000128030777Q 176.74134132394897-25.90000128030777  175.76134132394898-24.32000128030777Q 174.77134132394897-22.73000128030777  174.17134132394898-20.73000128030777Q 173.57134132394899-18.74000128030777  173.57134132394899-16.29000128030777L 173.57134132394899-16.29000128030777Q 173.57134132394899-12.49000128030777  175.06134132394897-10.18000128030777Q 176.55134132394898-7.87000128030777  179.82134132394899-7.87000128030777ZM 213.661808617414 0.7799987196922302L 213.661808617414-65.42000128030777L 222.551808617414-65.42000128030777L 223.611808617414-58.69000128030777Q 225.631808617414-62.44000128030777  228.251808617414-64.31000128030777Q 230.87180861741402-66.19000128030777  233.611808617414-66.19000128030777L 233.611808617414-66.19000128030777Q 238.851808617414-66.19000128030777  241.351808617414-62.97000128030777Q 243.851808617414-59.75000128030777  243.851808617414-53.31000128030777L 243.851808617414-53.31000128030777Q 243.851808617414-52.49000128030777  243.731808617414-51.36000128030777Q 243.611808617414-50.23000128030777  243.391808617414-49.00000128030777Q 243.18180861741402-47.78000128030777  242.87180861741402-46.55000128030777Q 242.551808617414-45.32000128030777  242.221808617414-44.32000128030777L 242.221808617414-44.32000128030777L 233.761808617414-44.32000128030777L 233.761808617414-50.47000128030777Q 233.761808617414-52.49000128030777  233.491808617414-53.79000128030777Q 233.231808617414-55.08000128030777  232.791808617414-55.880001280307766Q 232.361808617414-56.67000128030777  231.78180861741401-56.98000128030777Q 231.21180861741402-57.30000128030777  230.53180861741401-57.30000128030777L 230.53180861741401-57.30000128030777Q 229.09180861741402-57.30000128030777  227.87180861741402-56.36000128030777Q 226.641808617414-55.42000128030777  225.821808617414-53.74000128030777L 225.821808617414-53.74000128030777L 225.821808617414 0.7799987196922302L 213.661808617414 0.7799987196922302ZM 271.4439386715551 1.4999987196922302L 271.4439386715551 1.4999987196922302Q 267.16393867155506 1.4999987196922302  263.8739386715551-0.09000128030776977Q 260.5839386715551-1.67000128030777  258.3239386715551-5.04000128030777Q 256.0639386715551-8.40000128030777  254.90393867155507-13.670001280307769Q 253.7539386715551-18.93000128030777  253.7539386715551-26.33000128030777L 253.7539386715551-26.33000128030777L 253.7539386715551-38.83000128030777Q 253.7539386715551-45.130001280307766  254.6939386715551-49.630001280307766Q 255.62393867155507-54.12000128030777  257.1439386715551-57.18000128030777Q 258.65393867155507-60.23000128030777  260.65393867155507-62.01000128030777Q 262.6439386715551-63.79000128030776  264.7639386715551-64.72000128030777Q 266.8739386715551-65.66000128030777  268.97393867155506-65.93000128030776Q 271.0639386715551-66.19000128030777  272.84393867155507-66.19000128030777L 272.84393867155507-66.19000128030777Q 276.10393867155506-66.19000128030777  279.1339386715551-65.20000128030777Q 282.16393867155506-64.22000128030777  284.47393867155506-61.84000128030777Q 286.78393867155506-59.46000128030777  288.15393867155507-55.47000128030777Q 289.5239386715551-51.48000128030777  289.5239386715551-45.52000128030777L 289.5239386715551-45.52000128030777Q 289.5239386715551-43.50000128030777  289.40393867155507-41.43000128030777Q 289.28393867155506-39.36000128030777  289.0839386715551-37.37000128030777Q 288.8939386715551-35.37000128030777  288.5839386715551-33.50000128030777Q 288.2739386715551-31.62000128030777  287.9339386715551-30.04000128030777L 287.9339386715551-30.04000128030777L 265.96393867155507-30.04000128030777L 265.96393867155507-23.31000128030777Q 265.96393867155507-18.98000128030777  266.3039386715551-16.02000128030777Q 266.6339386715551-13.07000128030777  267.4339386715551-11.260001280307769Q 268.22393867155506-9.46000128030777  269.59393867155507-8.670001280307769Q 270.96393867155507-7.87000128030777  273.03393867155506-7.87000128030777L 273.03393867155506-7.87000128030777Q 274.1339386715551-7.87000128030777  275.1939386715551-8.33000128030777Q 276.2539386715551-8.79000128030777  277.04393867155505-9.840001280307769Q 277.84393867155507-10.90000128030777  278.3239386715551-12.66000128030777Q 278.8039386715551-14.41000128030777  278.8039386715551-17.01000128030777L 278.8039386715551-17.01000128030777L 278.8039386715551-19.08000128030777L 288.9439386715551-19.08000128030777L 288.9439386715551-16.53000128030777Q 288.9439386715551-7.10000128030777  284.4539386715551-2.80000128030777Q 279.9539386715551 1.4999987196922302  271.4439386715551 1.4999987196922302ZM 265.96393867155507-38.21000128030777L 278.1739386715551-38.21000128030777Q 278.22393867155506-38.74000128030777  278.2739386715551-39.630001280307766Q 278.3239386715551-40.52000128030777  278.34393867155507-41.48000128030777Q 278.3639386715551-42.44000128030777  278.3639386715551-43.380001280307766Q 278.3639386715551-44.32000128030777  278.3639386715551-44.99000128030777L 278.3639386715551-44.99000128030777Q 278.3639386715551-51.53000128030777  276.8339386715551-54.41000128030777Q 275.29393867155505-57.30000128030777  272.2639386715551-57.30000128030777L 272.2639386715551-57.30000128030777Q 270.6739386715551-57.30000128030777  269.47393867155506-56.55000128030777Q 268.2739386715551-55.81000128030777  267.5039386715551-54.05000128030777Q 266.73393867155505-52.30000128030777  266.35393867155506-49.41000128030777Q 265.96393867155507-46.53000128030777  265.96393867155507-42.25000128030777L 265.96393867155507-42.25000128030777L 265.96393867155507-38.21000128030777ZM 301.1482749055514-13.07000128030777L 301.1482749055514-13.07000128030777Q 301.1482749055514-15.230001280307771  301.5582749055514-17.25000128030777Q 301.9682749055514-19.27000128030777  302.3582749055514-20.47000128030777L 302.3582749055514-20.47000128030777L 310.9082749055514-20.47000128030777Q 310.9082749055514-16.86000128030777  311.2682749055514-14.44000128030777Q 311.6282749055514-12.010001280307769  312.4482749055514-10.57000128030777Q 313.2682749055514-9.12000128030777  314.6382749055514-8.50000128030777Q 316.0082749055514-7.87000128030777  317.9782749055514-7.87000128030777L 317.9782749055514-7.87000128030777Q 320.7182749055514-7.87000128030777  321.9682749055514-9.41000128030777Q 323.2182749055514-10.95000128030777  323.2182749055514-12.97000128030777L 323.2182749055514-12.97000128030777Q 323.2182749055514-14.03000128030777  322.9282749055514-14.99000128030777Q 322.6382749055514-15.95000128030777  322.1082749055514-16.94000128030777Q 321.5882749055514-17.92000128030777  320.8182749055514-18.93000128030777Q 320.0482749055514-19.94000128030777  319.0882749055514-21.14000128030777L 319.0882749055514-21.14000128030777L 310.1882749055514-31.62000128030777Q 308.4582749055514-33.79000128030777  306.8482749055514-36.02000128030777Q 305.2382749055514-38.26000128030777  304.0082749055514-40.64000128030777Q 302.7882749055514-43.02000128030777  302.0382749055514-45.61000128030777Q 301.2982749055514-48.21000128030777  301.2982749055514-51.09000128030777L 301.2982749055514-51.09000128030777Q 301.2982749055514-54.94000128030777  302.6182749055514-57.78000128030777Q 303.9382749055514-60.61000128030777  306.1782749055514-62.49000128030777Q 308.4082749055514-64.36000128030777  311.3482749055514-65.28000128030777Q 314.27827490555137-66.19000128030777  317.5482749055514-66.19000128030777L 317.5482749055514-66.19000128030777Q 321.1482749055514-66.19000128030777  324.0382749055514-65.32000128030776Q 326.9182749055514-64.46000128030776  328.9882749055514-62.73000128030777Q 331.0582749055514-61.00000128030777  332.15827490555137-58.43000128030777Q 333.2682749055514-55.85000128030777  333.2682749055514-52.44000128030777L 333.2682749055514-52.44000128030777Q 333.2682749055514-50.130001280307766  332.8582749055514-47.97000128030777Q 332.4482749055514-45.81000128030777  332.0682749055514-44.27000128030777L 332.0682749055514-44.27000128030777L 323.6482749055514-44.27000128030777Q 323.6082749055514-47.54000128030777  323.3582749055514-49.99000128030777Q 323.1182749055514-52.44000128030777  322.4782749055514-54.05000128030777Q 321.8282749055514-55.66000128030777  320.6982749055514-56.48000128030777Q 319.5682749055514-57.30000128030777  317.7382749055514-57.30000128030777L 317.7382749055514-57.30000128030777Q 316.1482749055514-57.30000128030777  315.0982749055514-56.79000128030777Q 314.0382749055514-56.29000128030777  313.3882749055514-55.47000128030777Q 312.7382749055514-54.65000128030777  312.4782749055514-53.64000128030777Q 312.2082749055514-52.630001280307766  312.2082749055514-51.57000128030777L 312.2082749055514-51.57000128030777Q 312.2082749055514-49.27000128030777  313.3182749055514-47.30000128030777Q 314.4182749055514-45.32000128030777  316.2482749055514-43.02000128030777L 316.2482749055514-43.02000128030777L 325.9582749055514-31.62000128030777Q 327.0182749055514-30.33000128030777  328.4082749055514-28.47000128030777Q 329.8082749055514-26.62000128030777  331.0582749055514-24.39000128030777Q 332.3082749055514-22.15000128030777  333.1682749055514-19.51000128030777Q 334.0382749055514-16.86000128030777  334.0382749055514-13.98000128030777L 334.0382749055514-13.98000128030777Q 334.0382749055514-10.47000128030777  332.9282749055514-7.61000128030777Q 331.8282749055514-4.75000128030777  329.65827490555137-2.7300012803077696Q 327.4982749055514-0.7100012803077698  324.3482749055514 0.3999987196922302Q 321.1982749055514 1.4999987196922302  317.1582749055514 1.4999987196922302L 317.1582749055514 1.4999987196922302Q 313.8482749055514 1.4999987196922302  310.9082749055514 0.7599987196922302Q 307.9782749055514 0.009998719692230207  305.8182749055514-1.7000012803077698Q 303.6482749055514-3.4000012803077695  302.3982749055514-6.1900012803077695Q 301.1482749055514-8.98000128030777  301.1482749055514-13.07000128030777Z" path="M-333.5916748046875 0.779998779296875C-165.85546875 0.779998779296875 169.616943359375 0.779998779296875 337.3531494140625 0.779998779296875"></path></svg>