<?xml version="1.0" encoding="utf-8"?>
<!-- Generator: Adobe Illustrator 25.2.1, SVG Export Plug-In . SVG Version: 6.00 Build 0)  -->
<svg version="1.1" id="Layer_1" xmlns="http://www.w3.org/2000/svg" xmlns:xlink="http://www.w3.org/1999/xlink" x="0px" y="0px"
	 viewBox="0 0 164 26" style="enable-background:new 0 0 164 26;" xml:space="preserve">
<style type="text/css">
	.st0{stroke:#000000;stroke-width:0.25;stroke-miterlimit:10;}
	.st1{font-family:'Century';}
	.st2{font-size:18.4644px;}
	.st3{fill:#00A3FF;}
	.st4{fill:#3F4254;}
	.st5{stroke:#000000;stroke-miterlimit:10;}
</style>
<text transform="matrix(0.7124 0 0 1 30.252 20.3389)" class="st0 st1 st2">DAMO SOFTWARES</text>
<path class="st3" d="M0.9,24.8c-0.1,0.1-0.2,0.3-0.2,0.5c0,0.2,0.1,0.4,0.2,0.5c0.1,0.1,0.3,0.2,0.5,0.2h0l12.4,0h0
	c0.2,0,0.3,0,0.5-0.1c0.2-0.1,0.3-0.2,0.4-0.3c0.8-0.8,2.9-3,6.7-6.6c5-4.9,1.5-9.7,1.5-9.7l-4.6-4.7C19.4,5.7,18,7.3,18,7.3
	L0.9,24.8C0.9,24.8,0.9,24.8,0.9,24.8L0.9,24.8L0.9,24.8z"/>
<path class="st4" d="M0.3,1.4L0.3,1.4l10.1,10.3c0.1,0.1,0.2,0.1,0.2,0.2c0.1,0,0.2,0.1,0.3,0.1c0.1,0,0.2,0,0.3-0.1
	c0.1,0,0.2-0.1,0.2-0.2l5.3-5.4c1.4-1.7,0.5-2.5,0.5-2.5l-3.1-3.3c-0.1-0.1-0.2-0.2-0.3-0.2c-0.1-0.1-0.2-0.1-0.4-0.1H0.9
	c0,0,0,0,0,0c-0.1,0-0.3,0-0.4,0.1C0.4,0.3,0.3,0.4,0.2,0.5C0.1,0.7,0.1,0.8,0.2,1C0.2,1.1,0.2,1.3,0.3,1.4z"/>
<line class="st5" x1="1.9" y1="6" x2="1.9" y2="20.3"/>
</svg>
