<svg class="img-fluid" id="outputsvg" xmlns="http://www.w3.org/2000/svg" style="transform: matrix(1.11388, 0, 0, 1.11388, 0, 0); transform-origin: 50% 50%; cursor: move; transition: transform 200ms ease-in-out 0s;" width="512" height="512" viewBox="0 0 5120 5120"><g id="l15qTUKgD5d9hcCr1fbSCDW" fill="rgb(64,59,53)" style="transform: none;"><g><path id="p4zMIjIxY" d="M1701 2298 c-6 -29 -22 -116 -36 -193 -14 -77 -40 -212 -56 -300 -65 -337 -32 -599 92 -749 40 -48 140 -113 186 -122 25 -5 41 -16 57 -43 76 -120 230 -186 491 -211 197 -18 609 -7 720 21 191 47 313 166 377 369 21 70 23 91 23 320 0 278 -6 321 -99 728 l-51 227 -82 3 -83 3 0 -28 c1 -15 11 -116 24 -223 23 -193 23 -196 4 -246 -57 -158 -219 -275 -362 -262 -38 3 -36 4 61 45 55 23 112 45 126 49 23 5 27 12 27 40 l0 34 -117 0 c-145 0 -268 -15 -392 -46 l-95 -24 -95 31 c-82 27 -116 32 -228 37 -114 4 -264 -8 -307 -24 -33 -13 -57 256 -37 411 7 50 15 116 18 148 l6 57 -81 0 -81 0 -10 -52z m474 -902 c-49 -30 -119 -78 -154 -106 -64 -52 -73 -53 -85 -13 -6 19 0 26 46 49 78 40 261 123 273 123 6 1 -30 -23 -80 -53z"></path></g></g><g id="l6pk8DKqZqDdQMr6hTDknzT" fill="rgb(34,63,81)" style="transform: none;"><g><path id="p9pIqrPPS" d="M2379 4215 c-45 -24 -109 -172 -109 -253 0 -87 193 -262 290 -262 97 0 290 175 290 262 0 83 -64 229 -112 254 -38 20 -322 19 -359 -1z"></path></g></g><g id="l2yXScCuQhmDmRiRjdd4zDv" fill="rgb(47,78,96)" style="transform: none;"><g><path id="pC2lsiL7A" d="M2342 5033 c-24 -2 -45 -10 -47 -16 -3 -7 17 -187 44 -402 28 -221 45 -391 40 -393 -5 -2 -9 -10 -9 -18 0 -8 -7 -14 -15 -14 -29 0 -85 -145 -85 -223 0 -34 7 -59 22 -80 27 -41 90 -107 100 -107 4 0 17 -9 28 -20 11 -11 27 -20 35 -20 8 0 15 -4 15 -8 0 -15 49 -32 90 -32 41 0 90 17 90 32 0 4 7 8 15 8 8 0 24 9 35 20 11 11 24 20 28 20 9 0 72 63 72 72 0 4 11 19 25 34 20 22 25 37 25 79 0 80 -55 225 -85 225 -8 0 -15 6 -15 14 0 8 -4 16 -9 18 -5 2 12 174 40 397 34 272 46 398 39 405 -10 10 -394 18 -478 9z m366 -847 c33 -17 74 -88 97 -168 l16 -58 -30 -43 c-40 -58 -115 -125 -179 -160 l-52 -28 -52 28 c-64 35 -139 102 -179 160 l-30 43 16 58 c23 78 64 151 94 167 37 20 262 20 299 1z"></path></g></g><g id="l4lFWMxCcqNc7iUjVvH72sX" fill="rgb(84,78,71)" style="transform: none;"><g><path id="p1AydsWLI0" d="M1706 2343 c-3 -10 -33 -169 -67 -353 -56 -302 -63 -348 -63 -470 -1 -74 3 -161 7 -192 7 -49 12 -58 29 -58 18 0 19 4 13 38 -28 149 -24 267 19 495 14 75 37 199 51 275 14 75 30 161 36 190 l10 52 51 0 c49 0 50 0 44 -27 -9 -40 -25 -173 -26 -205 0 -21 5 -28 19 -28 19 0 18 -6 37 223 l7 77 -81 0 c-68 0 -81 -3 -86 -17z"></path><path id="pmBHKKg2r" d="M3240 2328 c0 -18 9 -123 21 -233 l22 -201 -29 -64 c-16 -36 -32 -66 -36 -68 -4 -2 -8 -12 -8 -23 0 -10 -6 -19 -14 -19 -8 0 -23 -11 -34 -25 -11 -14 -25 -25 -30 -25 -6 0 -15 -6 -19 -13 -10 -16 -105 -57 -132 -57 -14 0 -21 -6 -21 -20 0 -24 18 -25 86 -5 109 32 219 145 259 265 16 48 16 60 -4 238 -12 103 -23 200 -26 215 l-5 28 53 -3 52 -3 52 -228 c44 -193 68 -322 99 -524 3 -21 11 -33 21 -33 13 0 15 10 9 73 -10 95 -48 304 -92 497 -19 85 -40 179 -46 208 l-11 52 -83 0 -84 0 0 -32z"></path><path id="p19meuu8to" d="M1814 1858 c8 -71 24 -144 38 -171 9 -17 11 -17 27 -3 15 14 56 25 154 41 25 4 37 11 37 22 0 13 -9 15 -62 10 -35 -3 -78 -9 -95 -13 -29 -6 -34 -3 -43 22 -6 16 -14 57 -17 91 -5 54 -9 63 -26 63 -18 0 -19 -5 -13 -62z"></path><path id="p13eWj8lLO" d="M2090 1751 c0 -16 11 -19 103 -24 80 -4 126 -13 214 -41 l111 -36 84 24 c45 13 119 29 163 35 44 7 95 14 113 17 48 7 43 34 -7 34 -48 0 -249 -35 -310 -53 -42 -13 -50 -12 -134 15 -94 30 -195 47 -284 48 -45 0 -53 -3 -53 -19z"></path><path id="pPNRWpp50" d="M3030 1745 l-35 -13 50 -2 50 -1 -60 -23 c-68 -25 -243 -102 -265 -116 -21 -13 -12 -18 58 -26 59 -6 62 -6 62 15 0 15 11 25 40 37 22 9 40 20 40 25 0 5 7 9 16 9 8 0 44 10 80 22 61 22 64 24 64 55 0 31 -2 33 -32 32 -18 0 -49 -7 -68 -14z"></path><path id="pbCIufv95" d="M2565 1596 c-230 -60 -675 -248 -675 -286 0 -43 44 -129 66 -130 6 0 21 12 35 26 75 81 255 193 523 326 99 48 171 88 160 88 -10 -1 -59 -11 -109 -24z"></path><path id="phBv1t9F2" d="M3530 1370 c0 -93 1 -100 20 -100 19 0 20 7 20 100 0 93 -1 100 -20 100 -19 0 -20 -7 -20 -100z"></path><path id="pCg7Ps6wj" d="M1620 1216 c0 -32 3 -36 25 -36 24 0 25 1 12 32 -19 46 -37 48 -37 4z"></path><path id="pUNkmUDX3" d="M3525 1213 c-24 -157 -79 -275 -165 -357 -82 -78 -169 -116 -322 -141 -45 -7 -53 -35 -11 -35 46 0 153 22 153 31 0 5 14 9 30 9 17 0 30 5 30 10 0 6 11 10 25 10 16 0 25 6 25 15 0 9 9 15 25 15 16 0 25 6 25 15 0 8 8 15 18 15 23 0 72 50 72 73 0 9 7 17 15 17 9 0 15 9 15 25 0 15 6 25 14 25 15 0 26 21 26 51 0 10 4 19 9 19 12 0 40 104 47 178 6 53 4 62 -9 62 -11 0 -18 -12 -22 -37z"></path><path id="pd0icqnKf" d="M1660 1135 c0 -19 5 -35 10 -35 6 0 10 -7 10 -15 0 -10 10 -15 30 -15 l30 0 -32 50 c-18 27 -36 50 -40 50 -5 0 -8 -16 -8 -35z"></path><path id="p5wThv84V" d="M1760 1020 c0 -20 5 -30 15 -30 8 0 15 -4 15 -10 0 -5 16 -10 35 -10 19 0 35 3 35 8 0 4 -23 22 -50 40 l-50 32 0 -30z"></path><path id="p7Evp1jLE" d="M1870 955 c0 -17 7 -24 29 -28 18 -4 32 -14 36 -27 3 -11 15 -20 25 -20 13 0 20 -8 22 -27 3 -24 8 -28 41 -31 32 -3 37 -7 37 -28 0 -20 5 -24 30 -24 19 0 30 -5 30 -14 0 -22 135 -60 253 -72 57 -6 67 -5 67 9 0 11 -12 18 -37 22 -233 37 -358 97 -428 205 -16 25 -34 38 -64 46 -39 11 -41 10 -41 -11z"></path><path id="p18zRbLbj8" d="M2460 690 c0 -17 7 -20 50 -20 36 0 50 4 50 14 0 15 -30 26 -72 26 -21 0 -28 -5 -28 -20z"></path><path id="pla2AJvwA" d="M2828 703 c-10 -2 -18 -11 -18 -19 0 -10 14 -14 55 -14 48 0 55 2 55 20 0 17 -6 20 -37 19 -21 -1 -46 -3 -55 -6z"></path></g></g><g id="l4QB9VYniKaOmethBmjDeUN" fill="rgb(63,139,98)" style="transform: none;"><g><path id="p1BP5zqYiT" d="M631 4113 c-794 -992 -717 -2407 179 -3303 969 -969 2531 -969 3500 0 896 896 973 2311 179 3303 -34 42 -65 77 -68 77 -4 0 -21 -19 -37 -43 -41 -57 -101 -106 -230 -183 -111 -66 -582 -307 -714 -364 -41 -18 -111 -61 -155 -95 -87 -68 -129 -92 -190 -110 -39 -12 -40 -14 -57 -81 -9 -38 -17 -92 -17 -120 -1 -46 3 -56 47 -110 110 -138 125 -178 172 -470 l11 -72 50 -4 c98 -10 173 -94 216 -240 40 -140 24 -253 -41 -288 -16 -8 -24 -20 -22 -29 11 -37 55 -282 65 -356 29 -234 21 -416 -25 -555 -79 -234 -230 -339 -522 -360 -391 -29 -703 1 -855 83 -61 32 -142 106 -152 138 -4 11 -18 22 -33 25 -54 13 -143 68 -188 116 -140 149 -172 382 -102 743 l35 179 -30 16 c-53 29 -69 72 -64 170 12 197 110 346 237 358 41 4 51 8 54 26 3 11 17 91 31 176 31 175 50 221 140 333 50 61 55 71 55 117 0 27 -7 83 -16 124 -17 73 -17 74 -53 80 -43 7 -137 62 -219 127 -31 26 -91 61 -132 79 -131 57 -603 297 -714 364 -129 77 -189 126 -230 183 -16 24 -33 43 -37 43 -3 0 -34 -35 -68 -77z"></path></g></g><g id="lexQj9lbPBiRXKzlKUfMr2" fill="rgb(203,150,114)" style="transform: none;"><g><path id="p2hLVxcLr" d="M2520 3713 c0 -20 5 -23 35 -23 30 0 35 3 35 23 0 18 -6 22 -35 23 -30 0 -35 -3 -35 -23z"></path><path id="pH9HJDavI" d="M2552 3630 c-68 -24 -179 -99 -259 -173 -53 -50 -63 -64 -63 -93 0 -31 3 -34 29 -34 18 0 62 21 115 54 143 90 217 93 348 15 89 -52 205 -147 252 -204 26 -31 45 -45 62 -45 21 0 24 4 19 20 -4 11 1 57 11 102 13 61 22 82 36 86 35 9 17 41 -64 114 -126 113 -180 154 -217 166 -54 19 -207 14 -269 -8z"></path><path id="p1F8WCXNPw" d="M1672 2183 c-18 -98 -32 -186 -32 -195 0 -17 17 -34 26 -25 3 3 18 76 35 163 38 207 37 204 54 204 8 0 15 7 15 15 0 10 -10 15 -33 15 l-33 0 -32 -177z"></path><path id="phQOGGuDx" d="M1810 2345 c0 -8 7 -15 16 -15 17 0 17 3 -3 -147 -5 -38 -3 -43 13 -43 17 0 21 12 32 93 17 130 18 127 -23 127 -24 0 -35 -5 -35 -15z"></path><path id="pBkhPS3H7" d="M3380 2318 c0 -11 29 -140 75 -335 6 -27 35 -20 35 9 0 11 -17 91 -37 179 -31 134 -39 159 -55 159 -10 0 -18 -6 -18 -12z"></path><path id="pZabthOv9" d="M3240 2275 c0 -14 9 -104 20 -200 14 -124 17 -182 10 -200 -6 -15 -10 -37 -10 -51 0 -14 -6 -24 -14 -24 -8 0 -18 -10 -22 -22 -4 -13 -15 -29 -25 -36 -11 -7 -19 -22 -19 -33 0 -13 -7 -19 -21 -19 -12 0 -23 -8 -26 -20 -3 -11 -12 -20 -20 -20 -7 0 -32 -9 -55 -21 -45 -23 -148 -38 -148 -22 0 6 12 13 28 16 15 3 66 20 114 39 l88 33 0 38 0 37 -125 0 c-118 0 -125 -1 -125 -20 0 -19 7 -20 108 -21 l107 0 -54 -20 c-117 -41 -282 -122 -272 -132 6 -6 62 -11 128 -11 107 -1 123 1 173 25 122 58 232 204 232 310 0 42 -26 298 -38 367 -6 39 -34 45 -34 7z"></path><path id="pnTXafobn" d="M1814 2083 c-15 -79 13 -348 41 -393 3 -5 18 -2 34 6 16 8 67 19 112 25 147 19 149 19 149 34 0 19 -61 19 -180 1 -59 -9 -87 -10 -92 -2 -15 23 -28 139 -28 249 0 96 -3 117 -15 117 -8 0 -17 -14 -21 -37z"></path><path id="pGRteSPW9" d="M2160 1755 c0 -14 10 -17 109 -30 24 -3 89 -20 145 -38 l101 -33 60 18 c52 15 149 35 263 54 20 3 32 11 32 21 0 14 -10 15 -72 9 -40 -3 -121 -18 -180 -32 l-108 -26 -62 22 c-128 45 -288 64 -288 35z"></path></g></g><g id="l3qwwQWGQ9qQV2b1sChVkgj" fill="rgb(221,170,125)" style="transform: none;"><g><path id="p12AU8G2cg" d="M2440 3727 c-97 -40 -199 -113 -362 -260 -77 -69 -98 -107 -60 -107 30 0 68 -189 41 -206 -15 -9 -129 -164 -129 -175 0 -5 11 -9 25 -9 15 0 25 6 25 14 0 8 7 16 15 20 8 3 15 12 15 21 0 8 5 15 10 15 6 0 10 8 10 19 0 10 9 21 20 24 14 3 20 14 20 31 0 14 6 26 13 26 7 0 58 45 114 100 56 55 107 100 112 100 6 0 11 5 11 10 0 6 7 10 15 10 8 0 15 5 15 10 0 6 6 10 14 10 8 0 21 6 28 13 31 30 103 52 169 52 64 0 67 -1 122 -48 130 -111 350 -411 413 -563 20 -49 65 -174 100 -279 51 -152 61 -191 49 -193 -10 -2 -15 -16 -15 -43 0 -32 3 -39 20 -39 15 0 20 7 20 25 0 24 3 25 54 25 l54 0 37 -158 c20 -86 40 -169 43 -184 7 -27 7 -27 40 -11 52 25 72 76 72 181 0 220 -103 397 -239 410 l-50 4 -11 72 c-38 237 -57 306 -103 375 -67 100 -197 250 -269 308 -230 186 -362 207 -555 87 l-88 -54 65 63 c132 126 267 197 378 197 82 0 116 -14 200 -84 41 -34 87 -72 103 -85 l29 -24 0 30 c0 34 -27 63 -58 63 -14 0 -22 7 -24 23 -2 14 -11 23 -24 25 -12 2 -24 12 -27 23 -3 13 -14 19 -31 19 -16 0 -26 6 -26 15 0 17 -117 88 -182 111 -41 14 -50 14 -75 1 -24 -13 -31 -13 -48 -1 -25 18 -30 18 -95 -9z"></path><path id="paOiQcH1O" d="M1912 2943 c-5 -10 -22 -88 -36 -173 -15 -85 -29 -165 -32 -176 -3 -18 -13 -22 -54 -26 -135 -13 -227 -163 -237 -384 -7 -145 14 -193 93 -218 20 -6 22 3 54 179 l33 185 59 0 c52 0 59 -2 54 -17 -2 -10 -8 -37 -11 -60 -6 -38 -5 -43 13 -43 15 0 21 9 26 46 10 74 8 84 -14 84 -27 0 -32 -39 42 365 38 209 43 255 29 255 -6 0 -14 -8 -19 -17z"></path><path id="pC9mjV1cm" d="M3240 2230 c0 -33 3 -40 20 -40 21 0 25 16 14 58 -11 39 -34 27 -34 -18z"></path><path id="p8fQDD2F3" d="M1826 2178 c-11 -42 -7 -58 14 -58 17 0 20 7 20 40 0 45 -23 57 -34 18z"></path><path id="pLdyc2P9P" d="M3250 2140 c0 -33 3 -40 20 -40 21 0 25 16 14 58 -11 39 -34 27 -34 -18z"></path><path id="p1BrP8T8yD" d="M3260 2055 c0 -28 4 -35 20 -35 21 0 24 10 14 48 -10 36 -34 27 -34 -13z"></path><path id="pAdLzkU7z" d="M3270 1965 c0 -28 4 -35 20 -35 21 0 24 10 14 48 -10 36 -34 27 -34 -13z"></path><path id="p6BTJkr8p" d="M3270 1874 c0 -14 -7 -32 -15 -40 -8 -9 -15 -26 -15 -40 0 -15 -6 -24 -15 -24 -9 0 -15 -9 -15 -25 0 -17 -5 -25 -18 -25 -23 0 -42 -19 -42 -42 0 -13 -8 -18 -25 -18 -20 0 -25 -5 -25 -25 0 -33 9 -32 58 8 72 57 133 150 148 225 6 28 4 32 -15 32 -16 0 -21 -6 -21 -26z"></path><path id="p164LfVldt" d="M1825 1828 c3 -24 13 -66 21 -94 l14 -52 35 17 c40 18 46 41 11 41 -20 0 -25 7 -35 44 -6 25 -11 54 -11 65 0 15 -6 21 -21 21 -19 0 -20 -4 -14 -42z"></path><path id="pnfmvVTrf" d="M1988 1763 c-30 -3 -38 -8 -38 -24 0 -18 5 -20 48 -14 85 11 102 16 102 31 0 14 -26 16 -112 7z"></path><path id="pYeWaltNA" d="M2200 1756 c0 -14 11 -18 93 -32 32 -5 37 -4 37 14 0 15 -9 21 -37 26 -63 10 -93 7 -93 -8z"></path><path id="pJa7pThWe" d="M2860 1750 c0 -21 23 -26 68 -14 41 11 26 34 -23 34 -38 0 -45 -3 -45 -20z"></path><path id="pUqU5uoAT" d="M3080 1761 c0 -5 -8 -12 -17 -14 -10 -3 -3 -5 15 -6 49 -2 39 -14 -31 -38 -96 -34 -197 -81 -197 -93 0 -11 49 -14 74 -4 9 3 16 12 16 20 0 9 12 14 35 14 19 0 35 3 35 8 0 4 24 13 53 20 28 7 54 17 55 22 2 6 10 10 18 10 9 0 14 11 14 35 0 33 -2 35 -35 35 -19 0 -35 -4 -35 -9z"></path><path id="pG1X4Bs8P" d="M2755 1754 c-11 -2 -57 -11 -102 -20 -69 -14 -83 -20 -83 -35 0 -23 -4 -23 105 0 50 11 107 23 128 26 48 8 52 36 5 34 -18 -1 -42 -3 -53 -5z"></path><path id="p1DnqBJQ27" d="M2340 1728 c0 -12 149 -68 178 -68 7 0 12 8 12 18 0 19 -54 42 -99 42 -11 0 -21 5 -21 10 0 6 -16 10 -35 10 -21 0 -35 -5 -35 -12z"></path><path id="p11UKnQ0WP" d="M3020 1600 c0 -22 20 -26 51 -10 30 16 23 30 -16 30 -28 0 -35 -4 -35 -20z"></path><path id="p1BAq99BqK" d="M2801 1596 c-20 -11 -21 -14 -6 -19 30 -12 45 -7 45 13 0 23 -6 24 -39 6z"></path></g></g><g id="l6ySYeJiWRGbWK8ILI7QyQl" fill="rgb(236,186,138)" style="transform: none;"><g><path id="p5Xb7uhkV" d="M2430 3729 c-24 -11 -47 -24 -50 -28 -3 -5 -15 -11 -27 -15 -13 -4 -23 -12 -23 -17 0 -5 -7 -9 -15 -9 -8 0 -15 -4 -15 -10 0 -5 -7 -10 -15 -10 -9 0 -18 -7 -21 -15 -4 -8 -13 -15 -21 -15 -8 0 -17 -9 -20 -20 -3 -11 -13 -20 -22 -20 -22 0 -41 -19 -41 -42 0 -12 -8 -18 -23 -18 -33 0 -69 -42 -65 -75 3 -27 4 -26 73 35 144 129 275 215 364 241 39 12 41 14 25 26 -24 18 -50 15 -104 -8z"></path><path id="p12Nvl5bkB" d="M2586 3737 c-16 -11 -12 -15 37 -30 30 -9 93 -42 141 -71 l86 -55 0 30 c0 19 -5 29 -15 29 -8 0 -15 5 -15 10 0 6 -7 10 -15 10 -8 0 -15 4 -15 10 0 5 -11 12 -25 16 -14 3 -25 10 -25 14 0 9 -97 50 -119 50 -10 0 -25 -6 -35 -13z"></path><path id="pfylPTEk0" d="M2895 3544 c22 -19 52 -44 68 -55 l27 -20 0 30 c0 28 -3 31 -30 31 -25 0 -30 4 -30 25 0 22 -4 25 -37 25 l-38 -1 40 -35z"></path><path id="pZBBzbMLI" d="M2448 3466 c-63 -23 -182 -103 -257 -172 -112 -104 -253 -285 -278 -356 -8 -22 -27 -118 -44 -212 -16 -94 -39 -220 -49 -281 -11 -60 -20 -111 -20 -112 0 -2 12 -3 26 -3 22 0 25 -3 20 -23 -43 -173 -25 -622 25 -608 84 23 140 32 231 38 119 7 182 -3 325 -48 l91 -29 87 25 c48 14 139 32 202 40 127 17 317 20 308 6 -3 -5 -29 -17 -58 -27 -28 -9 -103 -40 -166 -67 -132 -59 -130 -65 21 -66 75 -1 110 4 153 20 104 39 221 175 240 280 5 29 -22 324 -40 431 -3 22 0 27 20 30 l23 3 -72 220 c-40 121 -90 260 -110 309 -64 152 -284 453 -413 563 l-56 48 -86 3 c-54 1 -100 -3 -123 -12z"></path></g></g><g id="l3EfEjYr6BkPPERNLw4Q0br" fill="rgb(206,208,209)" style="transform: none;"><g><path id="pM0hsP8Rp" d="M2293 5014 c-3 -9 15 -190 42 -401 l47 -385 -22 -15 c-12 -9 -33 -39 -46 -67 -13 -28 -24 -43 -24 -33 0 13 -8 17 -36 17 -32 0 -51 -15 -196 -152 -164 -155 -277 -276 -323 -347 l-26 -39 -53 23 c-29 13 -162 78 -294 144 -133 67 -251 121 -262 121 -11 0 -20 6 -20 13 0 8 -19 22 -42 33 -24 10 -49 24 -56 31 -7 7 -20 13 -28 13 -8 0 -14 4 -14 10 0 5 -11 12 -25 16 -14 3 -25 10 -25 15 0 5 -6 9 -14 9 -8 0 -16 7 -20 15 -3 8 -11 15 -18 15 -7 0 -19 9 -26 20 -7 11 -21 20 -32 20 -13 0 -20 7 -20 20 0 11 -7 23 -15 26 -8 4 -15 12 -15 20 0 8 -4 14 -10 14 -23 0 -8 19 17 22 25 3 28 8 31 43 l2 40 -49 -55 -49 -55 29 -41 c38 -56 95 -104 204 -172 99 -61 600 -319 735 -377 47 -21 106 -54 131 -75 67 -56 167 -119 210 -132 l39 -11 72 69 c152 144 314 259 403 285 25 7 45 16 45 19 0 3 -21 17 -48 32 -110 62 -198 165 -189 221 11 65 51 153 85 187 l36 35 -48 390 c-26 215 -50 400 -53 413 -6 26 -21 29 -30 6z"></path><path id="p19nc1ujBd" d="M2797 5008 c-3 -13 -27 -198 -53 -413 l-48 -390 36 -35 c34 -34 74 -122 85 -187 4 -26 -2 -42 -32 -84 -40 -54 -107 -111 -168 -144 -40 -21 -48 -35 -19 -35 59 0 265 -138 407 -272 51 -49 99 -88 106 -88 31 0 126 54 203 114 47 37 117 79 166 100 139 61 638 318 735 378 109 68 166 116 204 172 l29 41 -49 55 -49 55 2 -40 c3 -35 6 -40 31 -43 25 -3 40 -22 17 -22 -5 0 -10 -7 -10 -15 0 -8 -4 -15 -10 -15 -5 0 -10 -11 -10 -25 0 -20 -5 -25 -25 -25 -14 0 -30 -9 -37 -20 -7 -11 -19 -20 -26 -20 -7 0 -15 -7 -18 -15 -4 -8 -12 -15 -20 -15 -8 0 -14 -4 -14 -9 0 -5 -11 -12 -25 -15 -14 -4 -25 -11 -25 -16 0 -6 -6 -10 -14 -10 -8 0 -21 -6 -28 -13 -7 -7 -32 -21 -55 -31 -24 -11 -43 -25 -43 -33 0 -7 -9 -13 -20 -13 -23 0 -523 -247 -528 -261 -2 -5 -13 -9 -23 -9 -11 0 -28 -4 -38 -10 -15 -7 -24 -1 -52 40 -52 74 -183 213 -338 359 -125 117 -144 131 -175 131 -28 0 -36 -4 -36 -17 0 -10 -11 5 -24 33 -13 28 -34 58 -46 67 l-22 16 46 375 c26 207 46 386 44 398 -4 30 -25 34 -31 6z"></path><path id="p11h7HSFwl" d="M2028 4983 c-33 -8 -20 -33 17 -33 28 0 35 4 35 20 0 20 -14 23 -52 13z"></path><path id="pNKYNeBzt" d="M3040 4970 c0 -16 7 -20 35 -20 40 0 49 24 13 34 -38 10 -48 7 -48 -14z"></path><path id="p1133euLJF" d="M1768 4913 c-33 -8 -20 -33 17 -33 28 0 35 4 35 20 0 20 -14 23 -52 13z"></path><path id="py03Lo1Vt" d="M3300 4900 c0 -16 7 -20 35 -20 40 0 49 24 13 34 -38 10 -48 7 -48 -14z"></path><path id="pkpmvQPxl" d="M1179 4618 l-44 -33 35 -3 c19 -2 36 1 38 7 2 6 10 11 18 11 8 0 14 10 14 25 0 33 -8 32 -61 -7z"></path><path id="pM86z0Fuj" d="M3980 4561 c0 -29 3 -31 36 -31 39 0 38 9 -6 40 l-30 21 0 -30z"></path><path id="p5hnwDkce" d="M998 4484 c-32 -25 -58 -48 -58 -50 0 -2 16 -4 35 -4 28 0 35 4 35 20 0 15 7 20 25 20 21 0 25 5 25 30 0 17 -1 30 -2 30 -2 0 -29 -21 -60 -46z"></path><path id="pUfVHoTS3" d="M4060 4501 c0 -26 4 -31 25 -31 18 0 25 -5 25 -20 0 -17 7 -20 38 -20 l37 1 -35 30 c-19 17 -47 39 -62 50 l-28 20 0 -30z"></path><path id="p8mCmtEZm" d="M890 4390 l-35 -29 38 -1 c35 0 37 2 37 30 0 17 -1 30 -3 30 -1 0 -18 -13 -37 -30z"></path><path id="p3Qez7mOo" d="M4192 4389 c3 -32 6 -34 42 -37 36 -3 38 -2 26 13 -7 9 -26 25 -42 37 l-29 20 3 -33z"></path></g></g><g id="l1SfZt20eS09fAJJt07CDHL" fill="rgb(238,239,238)" style="transform: none;"><g><path id="pxulc6Enb" d="M2220 5015 c-450 -65 -854 -240 -1210 -523 -98 -78 -330 -305 -330 -323 0 -24 66 -100 128 -146 37 -28 112 -77 167 -108 106 -61 672 -345 724 -363 29 -10 31 -9 55 32 40 68 162 201 336 366 l164 155 14 -55 c14 -57 32 -88 32 -56 0 36 62 166 91 189 l28 22 -51 413 c-28 226 -54 412 -57 411 -3 -1 -44 -7 -91 -14z"></path><path id="p19Iz8WOM9" d="M2752 4618 l-51 -413 29 -22 c28 -23 90 -153 90 -189 0 -32 18 -1 32 56 l14 55 142 -134 c210 -197 372 -379 372 -418 0 -7 6 -13 13 -13 18 0 633 306 752 375 130 74 236 155 269 205 14 22 26 42 26 46 0 14 -122 144 -213 225 -281 253 -594 432 -941 539 -108 33 -301 75 -391 85 -33 4 -67 9 -76 11 -13 4 -23 -52 -67 -408z"></path></g></g></svg>