<?xml version="1.0" encoding="utf-8"?>
<!-- Generator: Adobe Illustrator 25.2.1, SVG Export Plug-In . SVG Version: 6.00 Build 0)  -->
<svg version="1.1" xmlns="http://www.w3.org/2000/svg" xmlns:xlink="http://www.w3.org/1999/xlink" x="0px" y="0px"
	 viewBox="0 0 32 32" style="enable-background:new 0 0 32 32;" xml:space="preserve">
<style type="text/css">
	.st0{fill:#826A1D;}
	.st1{fill:url(#_iJMWI_fj7RC5VEMIbyHsA_1_);}
	.st2{fill:url(#_aD05u7upjLyF7Jry2uRFS_1_);}
	.st3{fill:url(#_2jKZl8B6dQ4sLEkRrk38c_1_);}
	.st4{fill:url(#_3yuFKxP5r_vMvGcn0g8A__1_);}
	.st5{fill:url(#_93A8_RjXAqhiQXmfxYUbb_1_);}
	.st6{fill:url(#SVGID_1_);}
	.st7{font-family:'MyriadPro-Regular';}
	.st8{font-size:3px;}
</style>
<g id="Layer_2">
</g>
<g id="Layer_1">
	<g id="Layer_1_1_">
		
			<g id="_lgZ5IXKJzX3E4FVwKBveO" transform="matrix(1.3131961822509766, 0, 0, 1.3131961822509766, -81.19679260253906, -121.98023986816406)">
			<g>
				<path id="_DTD78MfXGarlButgmIJJc_9_" class="st0" d="M64.3,105.7l-2.4-4.4c0.5,0,0.9,0,1.3,0c1.1,0,2.1,0.1,3.1,0.4
					c0.8,0.2,1.6,0.5,2.4,0.8c0.6,0.2,1.2,0.4,1.8,0.6c0.2,0.1,0.3,0.1,0.5,0.2c0.6,0.2,1.2,0.4,1.8,0.5h0.1c0.1,0,0.2,0,0.4,0l0,0
					c0.1,0,0.2,0,0.4,0c0.2,0,0.4,0,0.5,0s0.3,0,0.4,0s0.2,0,0.3-0.1H75h0.1c0.1,0,0.3-0.1,0.4-0.1c0.1-0.1,0.3-0.1,0.4-0.2
					s0.3-0.1,0.4-0.2s0.3-0.2,0.4-0.3c0.1-0.1,0.2-0.2,0.3-0.3c0.1-0.1,0.1-0.2,0.1-0.3l0,0c0,0,0,0,0-0.1v-0.1v7.8
					c0,0.1,0,0.2-0.1,0.3c0,0.1-0.1,0.2-0.2,0.3c-0.1,0.1-0.2,0.2-0.3,0.3c-0.1,0.1-0.2,0.2-0.4,0.3c-0.1,0.1-0.2,0.2-0.4,0.2
					c-0.1,0.1-0.3,0.1-0.4,0.2c-0.1,0-0.3,0.1-0.4,0.1h-0.1c0,0,0,0-0.1,0s-0.1,0-0.3,0.1c-0.1,0-0.2,0-0.4,0c-0.2,0-0.3,0-0.5,0
					s-0.5,0-0.7,0c-0.6-0.1-1.3-0.3-1.9-0.5c-0.2-0.1-0.3-0.1-0.5-0.2c-0.6-0.2-1.2-0.4-1.8-0.6c-0.8-0.3-1.6-0.6-2.4-0.8
					c-0.9-0.2-1.9-0.4-3.1-0.4c-0.4,0-0.9,0-1.3,0L64.3,105.7z"/>
				<path id="_IhPKF3li0IqAaJMv2FY3X_9_" class="st0" d="M83.7,105.7l2.4-4.4c-0.5,0-0.9,0-1.3,0c-1.1,0-2.1,0.1-3.1,0.4
					c-0.8,0.2-1.6,0.5-2.4,0.8c-0.6,0.2-1.2,0.4-1.8,0.6c-0.2,0.1-0.3,0.1-0.5,0.2c-0.6,0.2-1.2,0.4-1.8,0.5h-0.1
					c-0.1,0-0.2,0-0.4,0l0,0c-0.1,0-0.2,0-0.4,0c-0.2,0-0.4,0-0.5,0s-0.3,0-0.4,0s-0.2,0-0.3-0.1H73h-0.1c-0.1,0-0.3-0.1-0.4-0.1
					c-0.1-0.1-0.3-0.1-0.4-0.2s-0.3-0.1-0.4-0.2s-0.3-0.2-0.4-0.3c-0.1-0.1-0.2-0.2-0.3-0.3c-0.1-0.1-0.1-0.2-0.1-0.3l0,0
					c0,0,0,0,0-0.1v-0.1v7.8c0,0.1,0,0.2,0.1,0.3c0,0.1,0.1,0.2,0.2,0.3c0.1,0.1,0.2,0.2,0.3,0.3c0.1,0.1,0.2,0.2,0.4,0.3
					c0.1,0.1,0.2,0.2,0.4,0.2c0.1,0.1,0.3,0.1,0.4,0.2c0.1,0,0.3,0.1,0.4,0.1h0.1c0,0,0,0,0.1,0s0.1,0,0.3,0.1c0.1,0,0.2,0,0.4,0
					c0.2,0,0.3,0,0.5,0s0.5,0,0.7,0c0.6-0.1,1.3-0.3,1.9-0.5c0.2-0.1,0.3-0.1,0.5-0.2c0.6-0.2,1.2-0.4,1.8-0.6
					c0.8-0.3,1.6-0.6,2.4-0.8c0.9-0.2,1.9-0.4,3.1-0.4c0.4,0,0.9,0,1.3,0L83.7,105.7z"/>
			</g>
		</g>
		
			<g id="_TDsQ7JWyprUKgCblpImed" transform="matrix(1.3131961822509766, 0, 0, 1.3131961822509766, -81.19679260253906, -121.98023986816406)">
			<g>
				
					<linearGradient id="_iJMWI_fj7RC5VEMIbyHsA_1_" gradientUnits="userSpaceOnUse" x1="-1294.7307" y1="271.0996" x2="-1292.458" y2="271.0996" gradientTransform="matrix(-10.3812 0 0 5.4326 -13364.7334 -1366.365)">
					<stop  offset="0.25" style="stop-color:#009EF7"/>
					<stop  offset="1" style="stop-color:#000000"/>
				</linearGradient>
				<path id="_iJMWI_fj7RC5VEMIbyHsA_9_" class="st1" d="M64.7,105.7l-2.2-4c0.4,0,0.8,0,1.2,0c1,0,1.9,0.1,2.8,0.3
					c0.7,0.2,1.4,0.4,2.1,0.7c0.5,0.2,1.1,0.4,1.6,0.6c0.1,0,0.3,0.1,0.5,0.1c0.5,0.2,1.1,0.4,1.6,0.4h0.1c0.1,0,0.2,0,0.3,0l0,0
					c0.1,0,0.2,0,0.3,0c0.2,0,0.3,0,0.5,0c0.1,0,0.2,0,0.3,0c0.1,0,0.2,0,0.2,0h0.1h0.1c0.1,0,0.3-0.1,0.4-0.1s0.3-0.1,0.4-0.2
					s0.2-0.1,0.3-0.2c0.1-0.1,0.2-0.2,0.3-0.2c0.1-0.1,0.2-0.2,0.2-0.3c0.1-0.1,0.1-0.2,0.1-0.2l0,0c0,0,0,0,0-0.1v-0.1v7.1
					c0,0.1,0,0.2,0,0.3c0,0.1-0.1,0.2-0.1,0.3c-0.1,0.1-0.1,0.2-0.2,0.3c-0.1,0.1-0.2,0.2-0.3,0.2c-0.1,0.1-0.2,0.1-0.3,0.2
					c-0.1,0.1-0.2,0.1-0.4,0.2c-0.1,0-0.3,0.1-0.4,0.1h-0.1c0,0,0,0-0.1,0s-0.1,0-0.2,0s-0.2,0-0.3,0c-0.2,0-0.3,0-0.5,0
					s-0.4,0-0.7,0c-0.6-0.1-1.2-0.2-1.8-0.4c-0.2,0-0.3-0.1-0.5-0.1c-0.5-0.2-1.1-0.4-1.6-0.6c-0.7-0.3-1.4-0.5-2.1-0.7
					c-0.8-0.2-1.8-0.3-2.8-0.3c-0.4,0-0.8,0-1.2,0L64.7,105.7z"/>
				
					<linearGradient id="_aD05u7upjLyF7Jry2uRFS_1_" gradientUnits="userSpaceOnUse" x1="-1017.5213" y1="271.0996" x2="-1015.2485" y2="271.0996" gradientTransform="matrix(10.3812 0 0 5.4326 10634.9863 -1366.365)">
					<stop  offset="0.25" style="stop-color:#009EF7"/>
					<stop  offset="1" style="stop-color:#000000"/>
				</linearGradient>
				<path id="_aD05u7upjLyF7Jry2uRFS_9_" class="st2" d="M83.3,105.7l2.2-4c-0.4,0-0.8,0-1.2,0c-1,0-1.9,0.1-2.8,0.3
					c-0.7,0.2-1.4,0.4-2.1,0.7c-0.5,0.2-1.1,0.4-1.6,0.6c-0.1,0-0.3,0.1-0.5,0.1c-0.5,0.2-1.1,0.4-1.6,0.4h-0.1c-0.1,0-0.2,0-0.3,0
					l0,0c-0.1,0-0.2,0-0.3,0c-0.2,0-0.3,0-0.5,0c-0.1,0-0.2,0-0.3,0c-0.1,0-0.2,0-0.2,0h-0.1h-0.1c-0.1,0-0.3-0.1-0.4-0.1
					s-0.3-0.1-0.4-0.2s-0.2-0.1-0.3-0.2c-0.1-0.1-0.2-0.2-0.3-0.2c-0.1-0.1-0.2-0.2-0.2-0.3c-0.1-0.1-0.1-0.2-0.1-0.2l0,0
					c0,0,0,0,0-0.1v-0.1v7.1c0,0.1,0,0.2,0,0.3c0,0.1,0.1,0.2,0.1,0.3c0.1,0.1,0.1,0.2,0.2,0.3c0.1,0.1,0.2,0.2,0.3,0.2
					c0.1,0.1,0.2,0.1,0.3,0.2c0.1,0.1,0.2,0.1,0.4,0.2c0.1,0,0.3,0.1,0.4,0.1h0.1c0,0,0,0,0.1,0s0.1,0,0.2,0s0.2,0,0.3,0
					c0.2,0,0.3,0,0.5,0s0.4,0,0.7,0c0.6-0.1,1.2-0.2,1.8-0.4c0.2,0,0.3-0.1,0.5-0.1c0.5-0.2,1.1-0.4,1.6-0.6
					c0.7-0.3,1.4-0.5,2.1-0.7c0.8-0.2,1.8-0.3,2.8-0.3c0.4,0,0.8,0,1.2,0L83.3,105.7z"/>
			</g>
		</g>
		
			<g id="_nJFFh3ti5yMUEU84TFkTV" transform="matrix(1.3131961822509766, 0, 0, 1.3131961822509766, -81.19679260253906, -121.98023986816406)">
			<g>
				<polygon id="_-Yp_BKUdeO2tZKdscGaX6_9_" class="st0" points="78.5,102.1 78.5,101.3 74.3,104.7 				"/>
				<polygon id="_3np8SCm49D9T_hC4YmWJK_9_" class="st0" points="69.6,102.1 69.6,101.3 73.7,104.7 				"/>
			</g>
		</g>
		
			<g id="_lnUTHvmKpQiUoFuSh3BsV" transform="matrix(1.3131961822509766, 0, 0, 1.3131961822509766, -81.19679260253906, -121.98023986816406)">
			<g>
				
					<linearGradient id="_2jKZl8B6dQ4sLEkRrk38c_1_" gradientUnits="userSpaceOnUse" x1="-923.7253" y1="239.8421" x2="-921.4525" y2="239.8421" gradientTransform="matrix(6.185 0 0 6.8565 5783.3242 -1544.5179)">
					<stop  offset="0" style="stop-color:#009EF7"/>
					<stop  offset="1" style="stop-color:#000000"/>
				</linearGradient>
				<path id="_2jKZl8B6dQ4sLEkRrk38c_9_" class="st3" d="M77.5,102.3c0,0-0.2-0.3-0.6-0.5c0,0-0.9-0.4-1.3-0.8l0,0
					c0,0.2,0,0.3,0,0.5c-0.1,0.6-0.2,1.2-0.2,1.2c-0.1-0.3-0.3-0.5-0.4-0.6c-0.1-0.2-0.3-0.2-0.4-0.2s-0.2,0.1-0.2,0.1
					c0.6-0.9,0.8-1.7,0.8-1.8c0-0.1,0-0.1,0-0.2v-0.1c0.2-0.3,0.3-0.5,0.4-0.8c0.2-0.2,0.2-0.7,0.2-0.7c0.1-0.5,0-0.6,0-0.7
					c0.1-0.3,0.2-1.1,0-1.7l0,0l0.2-0.2l0.1-0.1l0.5-0.3v-0.1L74.3,94h-0.1l-2.4,1.3v0.1l0.2,0.1v0.2c-0.1,0-0.1,0.1-0.1,0.2
					s0,0.1,0.1,0.2L71.9,98l0.1,0.6l0.1-0.6L72,96.1c0.1,0,0.1-0.1,0.1-0.2s0-0.2-0.1-0.2v-0.2l0.3,0.2l0,0l0.2,0.2V96l0,0
					c0,0-0.1,0.4,0,1.7c0,0-0.2,0.1-0.1,0.8c0,0,0.1,0.4,0.2,0.7c0.1,0.3,0.2,0.6,0.3,0.9l0,0c0,0,0,0.1,0,0.3
					c0,0.1,0.3,1.1,0.8,1.8c0,0-0.1-0.1-0.2-0.1s-0.2,0-0.3,0.2c-0.1,0.1-0.2,0.3-0.4,0.6c0,0-0.1-0.8-0.2-1.4c0-0.1,0-0.3,0-0.4
					c0,0,0,0,0-0.1c-0.4,0.4-1.3,0.8-1.3,0.8c-0.4,0.2-0.6,0.5-0.6,0.5c-0.5,1-0.7,2.2-0.7,2.6c0,0.6,1.8,1,4.1,1
					c2.3,0,4.1-0.5,4.1-1C78.2,104.5,78,103.3,77.5,102.3z"/>
				
					<linearGradient id="_3yuFKxP5r_vMvGcn0g8A__1_" gradientUnits="userSpaceOnUse" x1="-779.8855" y1="234.907" x2="-777.6127" y2="234.907" gradientTransform="matrix(3.826 0 0 7.2073 3058.1726 -1585.3057)">
					<stop  offset="0" style="stop-color:#009EF7"/>
					<stop  offset="1" style="stop-color:#000000"/>
				</linearGradient>
				<polygon id="_3yuFKxP5r_vMvGcn0g8A__9_" class="st4" points="74.3,104.6 74.3,114 79.4,110.9 79.4,101.5 				"/>
				
					<linearGradient id="_93A8_RjXAqhiQXmfxYUbb_1_" gradientUnits="userSpaceOnUse" x1="-780.7081" y1="234.907" x2="-778.4354" y2="234.907" gradientTransform="matrix(3.826 0 0 7.2073 3055.6997 -1585.3057)">
					<stop  offset="0" style="stop-color:#009EF7"/>
					<stop  offset="1" style="stop-color:#000000"/>
				</linearGradient>
				<polygon id="_93A8_RjXAqhiQXmfxYUbb_9_" class="st5" points="73.7,104.6 73.7,114 68.7,110.9 68.7,101.5 				"/>
			</g>
		</g>
		<g id="_qT-bz2pvAfQJsh-ALA7Cn">
			
				<linearGradient id="SVGID_1_" gradientUnits="userSpaceOnUse" x1="3758.8472" y1="254.5098" x2="3761.1199" y2="254.5098" gradientTransform="matrix(0.3347 0 0 4.1526 -1242.4659 -1035.2772)">
				<stop  offset="0.3" style="stop-color:#FC0000"/>
				<stop  offset="1" style="stop-color:#000000"/>
			</linearGradient>
			<rect x="15.6" y="15.4" class="st6" width="0.8" height="12.4"/>
		</g>
	</g>
	<g id="Layer_2_1_">
	</g>
	<text transform="matrix(1 0 0 1 4.8777 31.0855)" class="st7 st8">By Dhamodharan</text>
</g>
</svg>
