<?xml version="1.0" encoding="utf-8"?>
<!-- Generator: Adobe Illustrator 25.2.1, SVG Export Plug-In . SVG Version: 6.00 Build 0)  -->
<svg version="1.1" id="Layer_1" xmlns="http://www.w3.org/2000/svg" xmlns:xlink="http://www.w3.org/1999/xlink" x="0px" y="0px"
	 viewBox="0 0 98 67" style="enable-background:new 0 0 98 67;" xml:space="preserve">
<style type="text/css">
	.st0{fill:#4A9BD5;}
	.st1{fill:#3F4355;}
	.st2{fill:none;stroke:#010101;stroke-miterlimit:10;}
</style>
<path class="st0" d="M3.2,63.9c-0.4,0.3-0.8,0.8-0.8,1.3c0,0.5,0.4,1,0.8,1.3c0.4,0.3,1.2,0.5,2,0.5l0,0h50.7l0,0c0.8,0,1.2,0,2-0.3
	c0.8-0.3,1.2-0.5,1.6-0.8c3.3-2.1,11.9-7.8,27.4-17.1c20.4-12.7,6.1-25.2,6.1-25.2L74.3,11.4c4.5,2.9-1.2,7-1.2,7L3.2,63.9L3.2,63.9
	L3.2,63.9L3.2,63.9z"/>
<path class="st1" d="M0.7,3.1L0.7,3.1L42,29.9c0.4,0.3,0.8,0.3,0.8,0.5c0.4,0,0.8,0.3,1.2,0.3c0.4,0,0.8,0,1.2-0.3
	c0.4,0,0.8-0.3,0.8-0.5l21.7-14c5.7-4.4,2-6.5,2-6.5L57.1,0.8c-0.4-0.3-0.8-0.5-1.2-0.5C55.5,0,55.1,0,54.3,0H3.2l0,0
	C2.8,0,1.9,0,1.5,0.3c-0.4,0-0.8,0.3-1.2,0.5c-0.4,0.5-0.4,0.8,0,1.3C0.3,2.3,0.3,2.9,0.7,3.1z"/>
<line class="st2" x1="7.3" y1="15.1" x2="7.3" y2="52.2"/>
</svg>
