<?xml version="1.0" encoding="utf-8"?>
<!-- Generator: Adobe Illustrator 25.2.1, SVG Export Plug-In . SVG Version: 6.00 Build 0)  -->
<svg version="1.1" id="Layer_1" xmlns="http://www.w3.org/2000/svg" xmlns:xlink="http://www.w3.org/1999/xlink" x="0px" y="0px"
	 viewBox="0 0 164 26" style="enable-background:new 0 0 164 26;" xml:space="preserve">
<style type="text/css">
	.st0{fill:#00A3FF;}
	.st1{fill:#FFFFFF;}
	.st2{font-family:'Century';}
	.st3{font-size:18.4644px;}
	.st4{fill:#FFFFFF;stroke:#FFFFFF;stroke-width:2;stroke-miterlimit:10;}
</style>
<path class="st0" d="M0.8,24.7c-0.1,0.1-0.2,0.3-0.2,0.5c0,0.2,0.1,0.4,0.2,0.5C0.9,25.9,1.1,26,1.3,26h0l12.4,0h0
	c0.2,0,0.3,0,0.5-0.1c0.2-0.1,0.3-0.2,0.4-0.3c0.8-0.8,2.9-3,6.7-6.6c5-4.9,1.5-9.7,1.5-9.7l-4.6-4.7c1.1,1.2-0.2,2.8-0.2,2.8
	L0.8,24.7C0.8,24.7,0.8,24.7,0.8,24.7L0.8,24.7L0.8,24.7z"/>
<path class="st1" d="M0.2,1.3L0.2,1.3l10.1,10.3c0.1,0.1,0.2,0.1,0.2,0.2c0.1,0,0.2,0.1,0.3,0.1c0.1,0,0.2,0,0.3-0.1
	c0.1,0,0.2-0.1,0.2-0.2l5.3-5.4c1.4-1.7,0.5-2.5,0.5-2.5l-3.1-3.3c-0.1-0.1-0.2-0.2-0.3-0.2C13.7,0,13.6,0,13.4,0H0.8c0,0,0,0,0,0
	C0.6,0,0.5,0,0.3,0.1C0.2,0.2,0.1,0.3,0.1,0.5C0,0.6,0,0.7,0,0.9C0,1,0.1,1.2,0.2,1.3z"/>
<text transform="matrix(0.7124 0 0 1 28.468 19.9652)" class="st1 st2 st3">DAMO SOFTWARES</text>
<line class="st4" x1="2" y1="6.4" x2="2" y2="20.3"/>
</svg>
